<mxfile host="app.diagrams.net" modified="2023-11-06T02:58:26.396Z" agent="Mozilla/5.0 (Windows NT 10.0; Win64; x64) AppleWebKit/537.36 (KHTML, like Gecko) Chrome/119.0.0.0 Safari/537.36" etag="nT05dqPFyjG9dNg5yAOD" version="22.0.8" type="github">
  <diagram name="第 1 页" id="lVccNv_av35RYEEz8aFv">
    <mxGraphModel dx="1793" dy="988" grid="1" gridSize="10" guides="1" tooltips="1" connect="1" arrows="1" fold="1" page="1" pageScale="1" pageWidth="1654" pageHeight="1169" math="0" shadow="0">
      <root>
        <mxCell id="0" />
        <mxCell id="1" parent="0" />
        <mxCell id="fY73obB4F6OhqXvNk9wh-2" value="" style="shape=image;verticalLabelPosition=bottom;labelBackgroundColor=default;verticalAlign=top;aspect=fixed;imageAspect=0;image=data:image/png,iVBORw0KGgoAAAANSUhEUgAABU0AAAKrCAIAAABKvjsTAAAABGdBTUEAALGPC/xhBQAAAAlwSFlzAAAOxAAADsQBlSsOGwAAjRBJREFUeF7t3W+QHOed2Pe8c1Ve5lXyKq5KFd6kKpWqY95csVJxWFflYlWoKLZUcizWnWNnJTs42mEuTnJhTvbhXLHLZ/MkFbCGRN6dc5JJWSedBOxKlCKG5pkktMtbrqQDIK8WS/wjsAAXWHAXxGIBLrj5Pc/vmZ7uZ7p7uqefnuk/30/9Srcz0zM9Ozs47neentl/7/aduwzDMAzDMAzDdHV+8pOf3nj/tndmo0buntxJ70yGYSYeOp9hGIZhGIZp6xwCAEbQ+QzDMAzDMExbx/1KCwCIofMZhmEYhmGYto77lRYAEEPnMwzDMAzDMG0d9ystACCGzmcYhmEYhmHaOu5XWgBADJ3PMAzDMAzDtHXcr7QAgBg6n2EYhmEYhmnruF9pAQAxdD7DMAzDMAzT1nG/0gIAYuh8hmEYhmEYpq3jfqUFAMTQ+QzDMAzDMExbx/1KCwCIofMZhmEYhmGYto77lRYAEEPnMwzDMAzDMG0d9yttne7e23NfAUBL0PkMwzAMwzBMW8f9SluPn/184+t/8iOZ7/7wTfnanQsAjUfnMwzDMAzDMG0d9yttDTTypfDfvXxdv/7RGyvuMqBDNhbm5k4u7bhT6Ag6n2EYhmEYhmnruF9payBhf2blnDtxeCi1L+fc2Np2p4PYXpqfm18qcpMbi3MLqQcU7CydLHQLO8vz3Wy5KT6GjSTf1dxipWNNdnY25DGcm18u+ewo/shjFuh8hmEYhmEYpq3jfqUNTXpeql7a3p2279KXcwIfvV+ilEzOjWaqWYktdgs7G4vSchmh69hbS9D2Gz0//3amalqPoXmhJE+11p5cfucXfRXAfnclvwU6v9nofIZhGIZhGKat436lDUQX7aPxPoEvfpEez+8uKGBcJfpSFldtpcbPt4Ga0mZl9xXdhLnBYQbvLJ2MdX4sj72TUzPFx9Bul5DYZlaPQJrMkteHS77Zne3B92vKvKzskqfzm43OZxiGYRiGYdo67lfaQCTgz6yc+9nPN2RGM16yXy+Skc4P8Hb9IqU0mpwZotgzgVf0EP1EJdba+dffXPzDb5/5xa47GUw9j6HK+E4z07q4cI9G2p3R7zfvOTD84Y4y33Xiumbjcni3fwPQ+QzDMAzDMExbx/1KG4Ieq1/wHfiS+rKxOzGxoo2a7LiUayU28jpfsi1edMlLE1c0gZc07HzPBKvZB7ffXjz1h//qhz++euDOCaKex1AlOt9cJYt3vQKCPRojP3pRILOzXwzKewkgxuy34L4wE3Q+wzAMwzAM09Zxv9KGUHPnl1kUjbfTpI1qaJoubOxs79gCdNfSGhxtuUTWhl7Ptx5eOvPDP/p/Tv3g/O5EdTvtx3Ck89NeUMh47Auo+Giowe7N/y3S5wPm20m721nfZpI8MvMLi7Ll4sL8ZN886lap829t7zIMwzAMwzDM2PF+jQw17lfaELTzf/TGypmVc2Pfe6+drxt7b+MvoUhT2X4rIplbmsTuPLfMK4b1m9ggU6wG9UaqR93dC2f++I++9cevXwzzw6vxMczu/PjXk3e+UfnRmHj3w9dx4sy3PHaJXp8V7kGQO1D9SYHwJul87/9rMwzDMAzDMEzB8X6xrDjuV9oQ9O33ku4S8DLytbsgjWwsW+rG3/3hmwWPAvAVbdRkR6VcK7mR2WB4MrZ6bzbLWug2gVfO5HV3cOcXP/jGt/7V4s/er34If02PoTWFzhfVHo3Jd2+fGP53XODWBtsMHgRzOxMe34Eale786P9Hb93e2bot/8swDMMwDMMwY2cn+jXS+/WyyrhfaYPS4JeAL1LvGvyS+u50Bkmjkga1NVpexRpVab3Hlm3NluNTzrLXXdyw1yh0hVL2fr749W/9q9evuZMFTP8xnE7nG1N4NFJS3F/SN9/vmMV8exiI3tTwQTBnhn+GoJpynR8v/Pdv7bx/283NWx8wDMMwDMMwjDfRr4vyq2O89r1fMice9yttaFLvY5f0I/rX+OQq7nQxupq6mPyQvBQa5gX4oWUyzBi5fT1iP3+/bq96m6GO2I+EWs+v+zFs33q+OTW4Y0XYRyb2Ux7zjbiXfvRE1gOCZijR+YPIN+OuDQAAAKSR3x5/+ufnT53+3tdf+tfyv/K1nKO/SQZMfbezGnz3h2+eWTnnTuSaoPNtU9kuMoEUj6vYeqkazciUpvI2ciUfa7IRNvBSNhic76/rmp0amTdYmH1H+nf+5My1B+6MCdX8GBqZnR/fNuV6JVR+NLzdj3zv47iHcVluxntAfMMHXCUfwyIvE2CaJun892/nvmAGdNfNmzfX19fXAACoTP6DIv9Zcf+B6SIJeyn8+Mg58mtkKzpf033sp/EpfZe+O1GALaJhEpmTNszsYqmNtO2dvN+2Uxo1xlwq5pc29IscciOmEs19cdcyctfGh68gjM3CNINPmP/5h+6MSdX7GA5kdb7ZXfQ6yOSdH+TRGNm9/VGWuUODn2nuEfv2AU8+YiOPYWK1H7NWtPPjkX/z1gfu2kCfyG9jN27cODio/okxAAAcyn9Q5D8rHU59XcmPj5yjR/IHTH23s0Ak7KOP4pP/dedmkC31bfwyhT+HT7taxAMpI7Ri7V1Y7GbzUzbtUhfJMdr8o+cP67c4/YvxL7/69lbFX6Wm9xjGvnF93UQv0n0NNpus84M+Gt7uU5o8k34v0Qs96dfSx8H/JjOfQgV3jXpN1PlbdD76aH19ncgHAAQk/1mR/7i4E53jRb6O/BrZ2M7X9+TLfPeHb459Z74Wvmz5ozdWCka+i0az1DwaSDa3chdUh9L6KkX+ZlmRNgx4c5eGnR8Le+9kQdffXPzDb5/5RbW3/07pMTSXqpRtbEUvLpn/neRxUEEeDSv9ZQb7QGV/g4YWfuLwDffw+rc33IX93rO43dkbGb1HmLZynf/+LfuRe3Q+emltbc19BQBAIB3+j4tX+Drya6RZ0r8V7NP43M5C0L+fXzDatfPdiQLMEnSUoPHItIvT2louosamY36jRsanrH9pMuADd351M3gMR9iIja5odzzjpk10vvn2B9+7PhTxjHfM9553v+33mLeBM+ljiOko0flb9oNS5f8133j/jrs20Cd0PgAguL51vvwaqZ2vH7zv/cI5wbidhVBr5ycMQssYLVKNx5yCKthX8b2k828kCrzIsPM9s+j8hOk8hnG6x5HjBZLlP33a+e4b9h8K9ygN7p47WeyFiToeQ0xRqc43B+2/T+ejr+h8AEBwPex8+WUyOnTf+4VzgnE7CyH6W3qS+mOn7GfvxdmF1gqLwAX7Kn+ztEtNsg5DsXHr+XFTegwdPcQ9e3fa2u7ElA0KP+cNC+abLfyOhuLKPYaYNjofKIrOBwAER+dXHLezQM6snJN6LzhS++5qwKyYzJ9RbNP5zVa6829u3aHz0U90PgAguB52vvwy2djOF3fv7cXX7bPGbQ0AjUTnA0XR+QCA4Oj8iuN2BgCIofOBouh8AEBwdH7FcTsDAMTQ+UBRdD4AIDg6v+K4nQEAYuh8oCg6HwAQHJ1fcdzOAAAxdD5QFJ0PAAiOzq84bmcAgBg6Hyiqvl/FLq289tprK5fcKQBAj9D5FcftDAAQQ+cDRVX4VUxCPi/jC3T+9vk3X3vtzfMZf8bHXppzeYzZtMh2AICpoPMrjtsZACCGzsdMrJ44kuLEanTh0VOb9us86TeSpsitjTf5r2KXTccPMtw1eRErl/X6YzLfvkygxh4UsH1pxe6eowcAoBno/IrjdgYAiKHzMRM25U9vuVPCNnte52+eOvrMqdgVhL3Ocb1OttRbm0ilX8VyV9zHr+ebVwpyrquvCBQ4LEDZ1x1Y1AeAJqDzK47bGQAghs7HTJTsfHvpkWdOrCZy3Z7bls4Xkvor57dNXMcW4HPYEE9f/R80eizyrcIBn3t8AABgeuj8iuN2BgCIofMR1Ov/+PBv/P7hgTuVzca3dP7mqaOa97bZUzt/67RsknxRwGlb52cbtxBvq9y/XF8B8Fs9/dwUqbcJAJg2Or/iuJ0BAGLofAT1vb9/+N/8s8P77lS2gp2/deoZ0/gZlW6vU0jWLZz72tO/fORXnl/dd6fzzazzNcmjRXuhb/h/803T9CNWVuyl+Q2vrwd4NwsAmDo6v+Lc2NpmGIZhvKHzUdnO64d/5VOH39owX//s5OHf/Y49888O/+anDr9mz0xRpPNt5PvvyY+z16m0nj+Nzh8EtfHm+e34yfG01d2b882rASbLCx2cb/eTs5G+UlDghgAAtaLzK47bGQAghs5HZZr0/82nDk/+2eHNxcMTPz388KeHf+MT5pxXbrhtfEU6337dJNV+FTOVPllTD6456PwQ3BEE7hUEdyYAYPro/IrjdgYAiKHzEcLBh4evf83U/j/6x4cvLx7+zf/+8Mv/72FePWZ1vh6on+PEqr3KxNLe51/UjDrfJbl+Meh8e2ZM8pbHLebrQQXmNu1X+Uf4AwDqROdXHLczAEAMnY+AHhy+8o8P/7d/Hez9+dGl2VaPD69Xt4CdX+Do/UF8a4mbvPc7f/C12cLecuKLnM6PXzxmUwBAzej8iuN2BgCIofMRglvPnzt8fbHaev7wQnvcvl3ez3sHvr3a2LfoBxK68zPr2i7WDzo/eiN9zMrlKp1vb354qd2YJX0AmBE6v+K4nQEAYuh8VLbzZ+7d+N+7cXjpXx+eLPP+/Cjp0zt/3HJ9/Fr1m03nD8Xb3m4SE+V99EXWzdvLotuxeJc+AMwOnV9x3M4AADF0Pirb+n8PPzV3+P/ZpH/jnx3+b4vmC/1wPmn+dPHOt52e0fn5h+7rn9Yvosrb8iOhOz/f+M6fZD3fVb5329nbAwBqRudXHLczAEAMnY+gvvM/H/6Vk+7rAuxyvUiGfLzzdZu8v643jn2loJGdnxnWdrE+vfPVm+fPT9T59vzUY/Tz7xAAoDZ0fsVxOwMAxND5COrlucO/8TX39Xjm7fdHj5+wi/Kx1E92ftVQjx8p4LN/P//TJ87V+ffzB6LO3z6/cv5SblbHO1/TPFLluH1X+fEj9mMofQCYCTq/4ridAQBi6HzMTtTztuSHi/Ze54u8Vh/DHtufvLXI/rkXp9z5Kysa0169pwl83L7uMbfjdZO01X4AQG3o/IrjdgYAiKHzMSPeKn0s9Ydlbs50ia5vxS+/qm9fIQj0gfzVOz8q7ZQQj7GbTtD5Ef/mC0S+0jtJ6gPA9ND5FcftDAAQQ+djFrTqvfxePXH0+Kp+NN/A6Pv2s1f19TZHVXlvf1KlX8Xsn8eLSnt856dcOGHna7tn7sxXcnMAQDV0fsVxOwMAxND5mD57XH72ynzVD96rTZVfxWyXD5fJRztf8zoyaPi4eNvr19GV9KZ02d7RLe0WpaNdbzftPgAAAqPzK47bGQAghs4Hiurwr2IAgFmh8yuO2xkAIIbOB4qi8wEAwdH5FcftDAAQQ+cDRdH5AIDg6PyK43YGAIih84Gi6HwAQHB0fsVxOwMAxND5QFF0PgAgODq/4ridAQBi6HygKDofABAcnV9x3M4AADF0PlAUnQ8ACI7OrzhuZ+3xypcP/88fuK/jbv7g8FNfPrzpTvXS5uIX5r6wuOlOHR5eX/yt+Xfc1yWZm5qzV35nPnGb/SYPhj4q47xzcm7utxavu1ORwtfvCfN4FHp2mcfz5LQfODofKIrOBwAER+dXHLez6Xvn8FO/U3ReiP2G73V+lPd0flrn+7UpvVSoM6PO37x+3cTY3BcWRqK1w+y3X1L8cbX9OnjEYo1K53tSnqIpYk9s82CmC/+40vlAUXQ+ACA4Or/iuJ1Nn+38P3cn8ryQ2/ly8lNfN1/Q+SOdLxLBeX3BxPviZoFijzpfmZP0aeFOt4/64AcR/xH0tvNtz5c0eNDMdRMvM408zzOOnqiKzgeKovMBAMHR+RXH7Wz6Kqznyzku9a8f/p+DS+n8tM43ba+NZCM/fqlpzrJ61qjFHqKRwkwcZJ74ofS28ydnnrfe0RDe89ycrOVRpfOBouh8AEBwdH7FcTubvsLr+RFT8l+36/lfN3n/ynV7zsiLAsOx6/x9MHow8/yCiZ9M4xc/TVMlFlH7aCTLR84wFeo/mImN7Msr2ab+nvNZK7CwH39Mho+lXtEejZLs/LQfQRh0PlDU+vr6wcGBOwEAQGXynxX5j4s70Tle4et0rfOLrepL0gs9Yt8dty9X/Lo5pD86hp/1fG1zbz3fGjnyeTx7W3S+lme+ZGRq2A86P9H8Iyd7aMxTMXEohJ4cGjy37QL+4EZqfEjpfKComzdv3rhxg9QHAAQh/0GR/6zIf1zc6c7xCl+n8+v5f/71xNvv4/SN+q7zNexjt0Dn2ygK1fl2+bR3q82ekYYcOWNkMdlsIdxG/vY1RmlL6LJ8rtFnnXdkvj7G+rDbiyJhH1s6HyhBfhtbX19fAwCgMvkPSocjX3iFr9PBzh+3pO/enD/YPur86AvV+87X+vnC/En3hvyYjM5PNlKMebHAW1mFMa7To6P07Uajr5XQ+ROwT+z4w6jPdO+RNGemvsg1OTofAAAA4XmFr9PVzo+W5b31fIn5+IfwCS/vI33vfOmc3/rCoNslePIWTkebf7TqzTn1vO25HTJfBBmVOJ58/p0o5q+/c3I+WZ7RRT1UYCU/zj0b7bVS3hkxv5g4kmL0JZUA6HwAAACE5xW+Tn/X8wfinf/CyMbx8a7YbZLl9rP3BoWfSCNzTv5x+6OdrzXVp4ewgNFON20/6Hy51DyGOTHf984v+OaR4bPRf7XFPNSDV6BiD6b5cvBTCIfOBwAAQHhe4et0pvOzlt9z3p+vWM9PYXJo/p1hc0r3xHNyks6vqZ3awc/LIqLHatCfhW6kP49w/EloHqIUgxenUp6NQ/ZlLHvp4KUoe2uZ20+OzgcAAEB4XuHrdKrzvy6/qpu/kOetw4+OdyQ/ne+RLjIFNex8z0SdbzO1r4vPGQYJP5TymI9uFMm5qPP8zvceh/gnGmY9G82ZiaelbX6jlgeVzgcAAEB4XuHrdKbz3bq97Xz9s3kqWs+P3pnvhT2dP+L6OycXzUM1bM6ofzJ52Z+2gjpcOLXGv1jQfXT+5CbsfLtoL9zm5qLhe1IGz3P/qRsGnQ8AAIDwvMLX6Uzn6x/Jizpf8t5bwzdju53OLyqlOdX4RHdlpaumhskqm1jRDfasUYcPxVh0fhF+56cY6Xz/5Sd7vcEDqDfyhcV37E9qGP/B0PkAAAAIzyt8nY50/juDJh90vqn0tI/ck3Po/KIm6vzBeqnlx5JNKT0z88b7ZLTTUx6W0Y0iORd13pj1/JiMp6u+8mKz3z1pRxb2wz62dD4AAADC8wpfpxudP2z1keP2R6V3frE39uffcteU63yXRln979jSl62+YDbua6JGCnU6nZ8qo94jmvFOyoNk2j4W+Slb2OfqmOdzGXQ+AAAAwvMKX6cLnR8t5ovszo8fyR/9dX2RtZ6Pkp1fmEv9kAXVLubo8YECDwKd3xF0PgAAAMLzCl+nG+v5qEVNnQ/0Ep0PAACA8LzC16HzAWAK6HwAAACE5xW+Dp0PAFNA5wMAACA8r/B16HwAmAI6HwAAAOF5ha9D5wPAFND5AAAACM8rfB06HwCmgM4HAABAeF7h69D5ADAFdD4AAADC8wpfh84HgCmg8wEAABCeV/g6dD4ATAGdDwAAgPC8wteh8wFgCuh8AAAAhOcVvg6dDwBTQOcDAAAgPK/wdeh8AJgCOh8AAADheYWvQ+cDwBTQ+QAAAAjPK3wdOh8ApoDOBwAAQHhe4evQ+QAwBXQ+AAAAwvMKXyd453/qdw6ZsAOgA+h8AAAAhOcVvg6d3/wB0AF0PgAAAMLzCl+Hzm/+XHj3KsMwbR86HwAAAOF5ha8TvPPdzgAAh4c7A3Q+AAAAwvMKX4fOB4D6uMqn8wEAAFAHr/B16HwAqI+rfDofAAAAdfAKX4fOB4D6uMqn8wEAAFAHr/B16HwAqI+rfDofAAAAdfAKX4fOB4D6uMqn8wEAAFAHr/B16HwAqI+rfDofAAAAdfAKX4fOB4D6uMqn8wEAAFAHr/B16HwAqI+rfDofAAAAdfAKX4fOB4D6uMqn84FSbt68ub6+voZZk5+C/CzcTwUA0Ehe4evQ+QBQH1f5dD5QnITljRs3Dg4O3GnMjvwU5GdB6gNAk3mFr0PnA0B9XOXT+UBx6+vrRH5zyM9CfiLuBACgebzC16HzAaA+rvLpfKC4tbU19xWagZ8IADSZV/g6dD4A1MdVPp0PFEdVNg0/EQBoMq/wdeh8AKiPq3w6HyiOqmwafiIA0GRe4evQ+QBQH1f5dD5QHFXZNPxEAKDJvMLXofMBoD6u8ul8oDiqsmn4iQBAk3mFr0PnA0B9NPJff/11Oh8oiqpsGn4iANBkXuHr0PldcvHStbdXzr7x1irDdG/kuS3PcPdcbw86HyiNqmwafiIA0GRe4evQ+Z3xs7PrFzau7O3tu9NAt8hzW57h8jx3p1uCzgdKoyqbhp8IADSZV/g6dH43XLx0TRLInQC6S57n7VrVp/OB0qjKpuEnAgBN5hW+Dp3fDW+vnGUlH30gz3N5trsTbUDnA6VRlU3DTwQAmswrfB06vxveeGvVfQV0Xbue7XQ+umv1xJEjR46e3nInw6mvKi+tvPbaayuX3CkURecDQJN5ha9D53cDnY/+oPOBGdg6fVSq3jp6atOcs3pcvj5Rxz/HClUpIZ+X8QU6f/v8m6+99ub5bXfSYy/NuTzGbFpkuzag8wGgybzC16Hzu4HOR3/Q+UBVNtFzaL1vnXrGnTaeOZVYuN88Jd1fx2K+mLwqL5uOH2S4a/IiVi7r9cdkvn2ZQI09KGD70ordfSeOHqDzAaDJvMLXofO7gc5Hf9D5QGG2xuO0zHOW4u26vX+R2T7Z+WNeKfBeFCipUlXmrriPX883rxTkXFdfEShwWICyrzt0YFGfzgeAJvMKX4fO7wY6H/1B5wOF2c4fVLt5P32Yzk/cbFKIN+1XrUpJ/ZXz2yauYwvwOWyIp6/+Dxo9FvlW4YDPPT6gNeh8AGgyr/B16PxuoPPRH3Q+UFg9nZ84acM+uoK9ZfcG/onVV5XjFuJtlfuX6ysAfqunn5si9TZbhs4HgCbzCl+Hzu8GOh/9QecDhVXqfFvwGYZXTnS+PZFy0P65rz39y0d+5fnVYn//dWadr0keLdoLfcP/m2+aph+xsmIvzW94fT3Au9m2ofMBoMm8wteh87uBzkd/0PlAYXmdn8N7CcB+IF98Pf90rOTjnZ9o/rhpdP4gqI03z2/HT46nre7enG9eDTBZXujgfLufnI30lYICN9RkdD4ANJlX+Dp0fjfQ+egPOh8oLMhx+/ZG0lbprcy2n1y1qjSVPllTD6456PwQ3BEE7hUEd2br0PkA0GRe4evQ+d1A56M/6HygME30mLGdP8qWv6NXH5xp34cfdb59GaHiO/PVjDrfJbl+Meh8e2ZM8pbHLebrQQXmNu1X+Uf4NxidDwBN5hW+Dp3fDXQ++oPOBwrLWc+36/PDXM9kO148c2pVg/+43Jz+aX17w4POdy8HmEurCtj5BY7eH8S3lrjJe7/zB1+bLewtJ77I6fz4xWM2bTY6HwCazCt8HTq/G+h89AedDxRWvvPNRfFWN1c6cWKwvTkpX+hhArrZoPMH8R9gST9052fWtV2sH3R+9Eb6mJXLVTrf3vzwUrtxO5f06XwAaDKv8HXo/G6g89EfdD5QWLnOt8luROeYdJerRNsrXbp3Nzvs/MENVF7Sn03nD8Xb3m4SE+V99EXWzdvLotuxWvsufTofAJrMK3wdOr8b6Hz0B50PFJbe+Xbh3dZ41PnuqPvhxpa9hlya7Hxb89HJeOcHWtIP3fn5xnf+JOv5rvK9287evtnofABoMq/wdej8bqDz0R90PlBYeudHXwzz3vDX4d1ivnyV6Hwb9np+dHL46oB36USasJ6v3jx/Xr4u3/n2/NRj9PPvUFPR+QDQZF7h69D53UDnoz/ofKAwfSN9jCnwWJkPOj+xij8g27nzY52vK/ax7b3O19P+Ddq/n//pE+fq/Pv5A1Hnb59fOX8pN6vjna9pHqly3L6r/PgR+zFtLH06HwCazCt8HTq/G+h89AedDxSWWM93TLQPzouO208wqZ44c9j59gYTy/V+59vbPH5qK36b++denHLnr6xoTHv1nibwcfu6x9yO103SVvubis4HgCbzCl+Hzu8GOh/9QecDhaV0vu3ywSH6qZ0/emby/flJI51fXfXOj0o7JcRj7KYTdH7Ev/kCka/0TrYm9el8AGgyr/B16PxuoPPRH3Q+MDk9UD/K8uzOT5R7Tuen3kJFlarS/nm8qLTHd37KhRN2vrZ75s58JTefKTofAJrMK3wdOr8b6Hz0B50PTErfOx//vL3Rc/Qt/cmqT+l8vaJV8VP3RlWpStvlw2Xy0c7XvI4MGj4u3vb6dXQlvSldtnd0S7tF6WjX2027D81C5wNAk3mFr0PndwOdj/6g84GJbZ16xj/E3r5d3xN4fb4sqrJp+IkAQJN5ha9D53cDnY/+oPOBjqMqm4afCAA0mVf4OnR+N9D56A86H+g4qrJp+IkAQJN5ha9D53cDnY/+oPOBjqMqm4afCAA0mVf4OnR+N9D56A86H+g4qrJp+IkAQJN5ha9D53cDnY/+oPOBjqMqm4afCAA0mVf4OnR+N9D56A86H+g4qrJp+IkAQJN5ha9D53cDnY/+oPOBjqMqm4afCAA0mVf4OnR+N9D56A86H+g4qrJp+IkAQJN5ha9D53cDnY/+oPOBjqMqm4afCAA0mVf4OnR+N9D56A86H+g4qrJp+IkAQJN5ha9D53cDnY/+oPOBjltfXz84OHAnMGvys5CfiDsBAGger/B16PxuoPPRH3Q+0HE3b968ceMGqd8E8lOQn4X8RNxpAEDzeIWvQ+d3A52P/qDzge6TsFxfX1/DrMlPgcgHgIbzCl+Hzu8GOh/9UeTZvrN779zaFRl3ugDZ+Or1W3JFdzoQOh8AAAA18gpfh87vBjof/TH22S7F/vxXT+u4swqIrnJmJeQHTtH5AAAAqJFX+Drt6fydpZNz88s77tSQnL+44b5O2licm8u4SJkN5pe23Sm1szw/d3JpdDcNR+ejP8Y+2zXXdX3enZXGu1ROylVefPlVGXdWCHQ+AAAAauQVvk5jOt9kfJoo1LXzN+R/k+1ur5ha5uM6PzXp6Xyg4fKf7Tu79yTyv7nwljudQV8LGD1KX66Yev7E6HwAAADUyCt8nUZ1vka5Ke0F+9X20rzf+Tu23r18t2fpVeLGdL67QbO7cfJeLWgGOh/9kf9sv3r91tjO19cCUtfttfPzDwQohc4HAABAjbzC12lU58+fnHfhvbCxsTA3v7CY0vlCAt5bck+J/3Gdb15E8A/aF6znAw1XvfPPrKzJNqnvw6fzAQAA0CZe4es0az1/2SzgL5nOX1yURE9dz8+wsTC/uJG8NLfzs3qezgcarnrnywYyqQfn0/kAAABoE6/wdZrV+TbKdT3ffGU732R/muyV+oG8zrcHAAwO9d9Y0JtMNX4/TUDnoz8qdr4u5md92N4PXv8JnQ8AAIDW8Apfp1GdnybK7JT1/Fifp9S4eb0g7ch8w2Z+ovNH394v8o/8bxI6H/2R/2zXUM/523j5G+jf5JNtQn0UH50PAACAGnmFr9P89fxBZidW4BMyalxfBUjL9MFrCqznAy2U9WzXT9fTSndnjYi2cafT6AsBMkFSn84HAABAjbzC12lM5w8NOz/ONH+pv5/nx3xEbz++hs96PtAiOZ3/4suvSp+fWVnLSvT8g/aVvkVfxp2uhs4HAABAjbzC12lM59vl+hSDzJbLT86nfkJ+Ro3LufNLG0vzIy8NbCyYG6HzgZbKf7bravy5tSvudFL0QoA7PUJfCMg5IqAsOh8AAAA18gpfpy3r+fbMpejY/oS0Gjfbm8Ifvh3A43d+JjofaJb8Z7t+Dl9qqOtB+0UW8/kcPgAAALSDV/g6je/8nR2zgO9yPfUlgHjn7ywv2gV/s71+aF/6VUY7P20b1vOBBirS+amft69r9TmL+YLOBwAAQJt4ha/TlM43RZ3KHqgf9bZ5l/7IofvuUveGfPdywLDP5eKUo/3pfKClJu58OX9sw9P5AAAAaBOv8HUauJ4/EB1yP1ycFylNPnyNwG5uP7EvXueDY/gT/M7PROcDzTJZ5xc5aF/Q+QAAAGgTr/B1mtP5Etvzyxu27aOwl4JfXEoszqdkvKt0F+02+v3FebvUnzzT73z/Khbr+UDzTNz5cubYgKfzAQAA0CZe4es0pfMHB+S7tffo+PyRqhf2sPzoUPydjYX5wWq/jfzUv7030v+u7e3Z46XfZoPQ+eiPsc92/VD9c2tXSuW6bCxXKbLmXwqdDwAAgBp5ha/TkM5/9rOPPfbZZ4/F2LPNOvxv/tG/dWcNLCwsRCvwL7zwgjv32HOf+4S5kevXr9vrHsoX7hLn2b/7X/6XUeq/8IW/7O3xnXfe0YuEOyvGXdBUdD76Y+yzXT9vT8edVUB0lay/yTcZOh8AAAA18gpfpyGd72I6xl1weCj57c4akM53lyU638nu/GOysV4k5EbcuQN0PtAKRZ7tujhfqth1+53de+50IHQ+AAAAauQVvk5DOh8V0fnoj3Y92+l8AAAA1MgrfB06vxvofPQHnQ8AAAA4XuHr0PndQOejP+h8AAAAwPEKX4fO7wY6H/1B5wMAAACOV/g6dH430PnoDzofAAAAcLzC16Hzu4HOR3/Q+QAAAIDjFb4Ond8NdD76g84HAAAAHK/wdej8bqDz0R90PgAAAOB4ha9D53cDnY/+oPMBAAAAxyt8HTq/G+h89AedDwAAADhe4evQ+d1A56M/6HwAAADA8Qpfh87vBjof/UHnAwAAAI5X+Dp0fjfQ+egPOh8AAABwvMLXofO7gc5Hf9D5AAAAgOMVvg6d3w10PvqDzgcAAAAcr/B16PxuoPPRH3Q+AAAA4HiFr0PndwOdj/6g8wEAAADHK3wdOr8b6Hz0B50PdN/NmzfX19fXAACoTP6DIv9Zcf+B6SKv8HXo/G6g89EfdD7QcfLb2I0bNw4ODtxpAAAqkP+gyH9WOpz6XuHr0PndQOejP+h8oOPW19eJfABAQPKfFfmPizvROV7h69D53UDnoz/ofKDj1tbW3FcAAATS4f+4eIWvQ+d3A52P/qDzgY6j8wEAwdH5FcftDNNF56M/6Hyg4+h8AEBwdH7FcTvDdNH56A86H+g4Oh8AEBydX3HczjBddD76g84HOo7OBwAER+dXHLczTBedj/6g84GOo/MBAMHR+RXH7QzTReejP+h8oOPofABAcHR+xXE7w3TR+egPOh/oODofABAcnV9x3M4wXXQ++oPOBzqOzgcABEfnVxy3M0wXnY/+oPOBjqPzAQDB0fkVx+0M00Xnoz/ofKDj6vtV7NLKa6+9tnLJnQIA9AidX3HczjBddD76g84Hqts69cyRI8cb+m+pwq9iEvJ5GV+g87fPv/naa2+e33YnPfbSnMtjzKZFtgMAFHPlyhX5pcqdKI/OrzhuZ5guOh/9QecDlW2unjp+9MiRIycm+9e0ecpcOcOEtxkz+a9il03HDzLcNXkRK5f1+mMy375MoMYeFLB9acXunqMHAKA8/f3JnbAk8n/XcqfLo/MrjtsZpovOR3/Q+UBhqydcfJdll/pXj7tTSUdPbeqtjzC7y760sEq/iuWuuI9fzzevFORcV18RKHBYgLKvO7CoDwBFnD179vvf//5XvvIV7XkhX3/jG9+QwpeL9Bz52m1dHp1fcdzOMF10PvqDzgcKywjvrdNHs1fd7WsD3iH9o7djl/S9G5GbDbGcX/lXMUn9lfPbJq5jC/A5bIinr/4PGj0W+VbhgM89PgAAYEi9S89ryUvbS+0LOSfe/KJK5As6v+K4nWG63l45u7e3704A3SXPc3m2uxNtQOdjprI7X1o+WeSyqW452vn2zfzPnNpyJ62UW07bbCL1/So2biHeVrl/ub4C4Ld6+rkpUm8TAOBEB+RL28vvTO7cgfhK/uilpdD5FcftDNN18dK1CxuVXuECWkGe5/JsdyfawGY+nY/ZGjR5fL3dfu1CXbP/6OnVrdVTR0c/nM8u3R89nez3lM4ffYEgcu5rT//ykV95frXY69Ez63xN8mjRXugb/t980zT9iJUVe2l+w+vrAd7NAgAsjfyvfOUr8bV6PYBf/jce+brlW2+95TYqj86vOG5nmLqfnV2XBGJVH10lz215hsvz3J1uCTofM2eX2W3eJ4+rl/Ml1G2c+8GfXLk379L3kt67KSv15QBnGp0/CGrjzfPb8ZPjaau7N+ebVwNMlhc6ON/uJ2cjfaWgwA0BQN/Ib0iS7vHIj8I+fsS+Xiob65nyhW5cFp1fcdzOMAsXL117e+XsG2+tMkz3Rp7b7VrJV6by6XzMkn42vl1m9+LcfcxecgXebhOr+tjV48x1U47k99J/QtV+FTOVPllTD6456PwQ3BEE7hUEdyYAQOh78qPIl1+Y5KScKV/o6n38UvHWW2/pBu50SXR+xXE7AwDQ+Zi5+Gp81Pm6bh/vebOZi/n42+z1WIAELfnRzvdfIKhgRp3vkly/GHS+PTMmecvjFvP1oAJzm/ar/CP8AaBPtOTjx+FrxssX8chXuoHQlwbOnp3ks5ro/IrjdgYAoPMxa4n3zA/y3kguvCc/Qm/1xNHjq/K1W/CPNh5+xn5K/8dlHL1fVMDOL3D0/iC+tcRN3vudP/jabGFvOfFFTufHLx6zKQD0zPe//30pdvklyZ225+gx/Lbx3Uq+fBGver1UtnSny6DzK47bGQCAzkdj6PvwrZGD8PVSP85N1R89tRq1fbzzs9n9NKzzM+vaLtYPOj96I33MyuUqnW9vfnip3ZglfQCwdPU+vp6v5a808uVXKPk63vl6LdbzPV7h69D5AFAfOh+zNgh87fP4kn5C1t/Di7d9tzt/KN72dpOYKO+jL7Ju3l4W3Y7Fu/QBIMb7XL3oQ/iiyP+G/RP6eqmQc+RS3p8/yit8HTofAOpjKp/Ox2zYLM8M+IIm6vwx24wTuvPzje/8SdbzXeV7t529PQD0j/yGJBkv5Iv44fpCzpSv5X/l6/jGcqZ8oeeURedXHLczAACdj8ZK+cD8VCmdn/3mfLnBJnZ+Zljbxfr0zldvnj8/Uefb81OP0c+/QwDQM3ocvga80Ko/e/asnB8/OF9+l4pvMBk6v+K4nQEA6Hw0gf04PT+9Uzs/ZcuS6/n6voCRbezfz//0iXN1/v38gajzt8+vnL+Um9Xxztc0j1Q5bt9VfvyI/RhKHwDiorflZzX82A0KovMrjtsZAIDORxNU7/y4Ap0/8tf19s+9OOXOX1nRmPbqPU3g4/Z1j7kdr5ukrfYDQM9IukcNr19/5Stf+cY3viFtL6J1fjlHLnXXmRSdX3HczgAAdD6aoHrnu7PGr+frIf35LwWMV73zo9JOCfEYu+kEnR/xb75A5Cu9k6Q+gF7TsBfa8PK/+sF7eqaQr6X2qxe+ovMrjtsZAIDORxPYei+ubOcPPtDfGVnML6/Sr2L2z+NFpT2+81MunLDztd0zd+YruTkAdI40vMR8asbLL0/uq3Do/IrjdgYAoPPRLqkr/9NX5Vcx2+XDZfLRzte8jgwaPi7e9vp1dCW9KV22d3RLu0XpaNfbTbsPANALodbqi6DzK47bGQCAzgcm0OFfxQAAs0LnVxy3MwAAnQ9MgM4HAARH51cctzMAAJ0PTIDOBwAER+dXHLczAACdD0yAzgcABEfnVxy3MwAAnQ9MgM4HAARH51cctzMAAJ0PTIDOBwAER+dXHLczAACdD0yAzgcABEfnVxy3M8zCxUvX3l45+8ZbqwzTvZHntjzD3XO9Peh8oDQ6HwAQHJ1fcdzOMHU/O7t+YePK3t6+Ow10izy35Rkuz3N3uiXofKA0Oh8AEBydX3HczjBdFy9dkwRyJ4Dukud5u1b16XygNDofABAcnV9x3M4wXW+vnGUlH30gz3N5trsTbUDnA6XR+QCA4Oj8iuN2hul6461V9xXQde16ttP5QGnr6+sHBwfuBAAAlcl/VuQ/Lu5E53iFr0PndwOdj/6g84GOu3nz5o0bN0h9AEAQ8h8U+c+K/MfFne4cr/B16PxuoPPRH3Q+0H3y29j6+voaAACVyX9QOhz5wit8HTq/G+h89AedDwAAADhe4evQ+d1A56M/6HwAAADA8Qpfh87vBjof/UHnAwAAAI5X+Dp0fjfQ+egPOh8AAABwvMLXofO7gc5Hf9D5AAAAgOMVvg6d3w10PvqDzgcAAJm++7PDv/TFw7/w9w7/vaNMgPn3nz18cv7w1TX38Krf+BN/s1DzX33RPyfUvLzi7nz3eIWvQ+d3A52P/qDzAQBAui/9G7/umFDz9bfdgyzo/EbxCl+Hzu8GOh/9QecDAIAUd/b8tGMCzn/w9w/vP3QPNZ3fKF7h69D53UDnoz/ofAAAkOJPL/hpx4Sdl/7MPdR0fqN4ha9D53cDnY/+oPMBAECK03/up12R+Yu/ZcY7k0md333VPdRe58sD+IXFcvNrf5S4hWiKdP7o7or8BOn8iuN2humi89EfdD4AAEhRtvMlDl/7hbvuxdsmF70NGG+yOl8evQmkPuBFOv/X/sjdQqTItej8iuN2humi89EfdD4AAEhRqvMl8oXmvXSjBL98Xd9B41Xm3Obhe3cO/+sv+edPf7I6X8gDGD8nf/QVltSrcNz+BLzC16Hzu4HOR3/Q+QAAIEWpzv+DH5urRMd7a/aXitUi8/T/c7i7f/jCW/75xUfyXq7+4ODwR//Ovyh/fvv7Ztfyv975VSan83VxXh5GPYp+7Bc6v/ZH5mT8pkY7P7598fFuVobOrzhuZ5guOh/9QecDAIAUZTtfxjvn4u3EOdUnv/OLvwogkS9byvbe+Tkzk87XA/il1WUKfuG9tiJnxk/KjB6lX8To7dD5FcftDNNF56M/6HwAAJBibOdL++kyvvI6P96T0qvepZNNTslLugv532e/7c6RJn9wYHdfmGyfVfIz6XyJ9uKP21/8LbPx2M7X0RcF5GfknR8f/Qlm3QKdX3HczjBddD76g84HAAApxna+VKW+IV/Hu1SyU0JRL5ItRVYxFp/UzpeTIuct93K+XJp1oL73dn3duJSJ3+0/tvOrT37n66VR7XtfxLcZHTq/4ridYbrofPQHnQ8AAFKM7fxSq80iysiJx+t8XcMvktmyZepmWvVZLwFEo/stuK/iU2Q9v9SDJhuXWs+X/y3yhXddHTq/4ridYbrofPQHnQ8AAFI0ufN1DX9sn0fz298/3Lprrj56fpGj8c9tHm5smS3lf72jCapMqc7/i7/l2jt1dBs6Pwiv8HXo/G6g89EfdD4AAEhRpPP1jfdFDjIXunGV2k89br/IZK3bF/kbe/oagexUdy3bj75eMNkUP25fkzvH6Ofh62RVetTwRb7wrqtD51cctzNMF52P/qDzAQBAirGdL20pqS8jpOGzUlNHwlW3FEVeF0idiTtfRiJfrhtP9CK3Fm0TrfzL7Zzb9DebbEqt52t4p070yLOeH4RX+Dp0fjfQ+egPOh8AAKQY2/nRSGcKrzBTR7aUghVZ9Zg6GtuljKb46JL+2MV8vYreVNT5euZkrzV4w3H7zeQVvg6d3w10PvqDzgcAACmKd77MHxT+a/n6osBkS/reCrx8kfOX8EZHthd69dHl/dGRwo+2iTrf+7rKcNx+M3mFr0PndwOdj/6g8wEAQIpSnf9r9m+te2dmjb5R3zuzyHidH19vLziS9w8ODt98d/wLBLpltI3X9kVeJhg7HLffTF7h69D53UDnoz/ofAAAkKJU50u6FzluX0ZfEYjytdR4nS8j4S01Hj8nf/SlAZF/xL4X+TJe58vEV/snmyDH7eulOnR+EF7h69D53UDnoz/ofAAAkKLI5/BJjsqorCDUkUtlS6lQUfAVgdEZ7XyZ0SbPGo18vQW5Sta1JOCFt5fRzpeRLQvuOnWCHLeff2RE1g9Fb1D+t8gX3nV16PyK43aG6aLz0R90PgAASDG28zXadSU/qwajUbKxV7ClJrXzZcb2drSM/6Pk5/AJb00+vgvZOEu0uyqr+kGO29dLdVjPD8IrfB06vxvofPQHnQ8AAFIU6fzib7MXkx2rHx+v86XDJbOjr0U843WkxqXJxeirAzpa+zkb6MjtyK4nXrpPnZzO15dO4p1fZCbufH1TQOoX8r/edXXo/IrjdobpovPRH3Q+AABI0djOP/Xn5n9FFPk6mvTRSrueLLjYLpEvouuOjpw/tc6XR1XFz5xssio9anjpef25jH5B58eHzu8GOh/9QecDAIAURTr/4m3TgWNHulGE6nyR8yl6mvf5H7M3wUyz82X0cZNHuNTbHP7gx+XW8/N/IvpTy7oFOr/iuJ1huuh89AedDwAAUoztfG3Fgi4W++v6+fNCyT+YH3Cm3Pk6Eu1CHmd9qIt84R1hIWfGT0bzF3/LbFyEd8Vo6PyK43aG6aLz0R90PgAASDG282X0XdxjRzbzrsjI/NMfuYc6q/P1EHr5X5kvLBb6wrsFefC9c6LR7fNHtvGuFQ2dX3HczjBddD76o8izfWf33rm1KzLudAGy8dXrt+SK7nQgdD4AAFPypxf8tGPCzkt/5h7qrM6vPjmdX3Ho/IrjdobpovPRH2Of7VLsz3/1tI47q4DoKmdW1txZIdD5AABMyZ09P+2YgPMf/P3D+w/dQ03nN4pX+DoN7/yNhbm5hQ13It/20vzJpR13YmhjYX5p233t21icm/Mv3Vmen0u7nYaj89EfY5/tmuu6Pu/OSuNdKiflKi++/KqMOysEOh8AgOn50r/x644JNV9/2z3Igs5vFK/wdRrV+VL1i8moT+l8ifP08t9ZOulvbKJdUn45PdtTk57OBxou/9m+s3tPIv+bC/aPzWTT1wJGj9KXK6aePzE6HwCAqfruzw7/0hcP/8Lf8zOPmWz+/WcPn5w/fDV5tCOd3yhe4es0qfN3dpYXJcvjqe93/vaSCXf/1YABb33ebpwV+bK7pZPmUn0tIF/G/hqEzkd/5D/br16/Nbbz9bWA1HV77fz8AwFKofMBAABQI6/wdRq1ni9sdQ9bPdn5puPj2V8k0T3D7DevAqQc0s96PtBw1Tv/zMqabJP6Pnw6H5i93/7+4X/0mwzDMAwTck78qfuvTPd4ha/TtM4Xpu0HK+ixzreRH67As3qezgcarnrnywYyqQfn0/nA7H3iD/1fzhiGYRim4vy1l9x/ZbrHK3ydBna+SfqT80u27oedL5mfleVp9HUC72WC2OH3iUMD7CsLWZp/zL5B56M/Kna+LuZnfdjeD17/CZ0PzNh//iX/lzOGYRiGqTi/dML9V6Z7vMLXaWTnD8VCPV3a8vsw6TM732Z+ovNT9+K9ONBgdD76I//ZrqGe87fx8jfQv8kn24T6KD46HyjtP/099ztZh4+xBABMR/ResP/sy+6c7vEKX6c5nZ+1Mp8qiu+JOt9+Mr+Id34mOh9olqxnu366nla6O2tEtI07nUZfCJAJkvp0PlAanQ8ACIXOb+Z6fprEIvsEx+2bqyxsxNfwWc8HWiSn8198+VXp8zMra1mJnn/QvtK36Mu409XQ+UBpdD4AIBQ6v8WdX3I9f2PBfMw+nQ+0VP6zXVfjz61dcaeTohcC3OkR+kJAzhEBZdH5QGl0PgAgFDq/P52v/M7PROcDzZL/bNfP4UsNdT1ov8hiPp/DB8wSnQ8ACIXOb0DnmxQvKNH5aUp3Puv5QEsU6fzUz9vXtfqcxXxB5wOzR+cDAEKh8/u+nk/nAy0xcefL+WMbns4HZo/OBwCEQud3svNjxnV+JjofaJbJOr/IQfuCzgdmj84HAIRC53en87eX5ufMJ+0lmDNzO5/1fKAlJu58OXNswNP5wOzR+QCAUOj8WXe+SeriUjt/uCwflb/Neyf5coBr+4K79Q8ZaBw6H/0x9tmuH6p/bu1KqVyXjeUqRdb8S6HzgdLofABAKHT+bDv/2Ah3weHhO++8485ynv0Hf/kvR53/wgsvuLMHrl+/rhfJF+6sAdlYLxIvfOEvP/bZZ90FluzIXZZ7f5qJzkd/jH226+ft6bizCoiukvU3+SZD5wOl1df5l1Zee+21lUvuFACg++j89nT+sYWFBXdZhc6XG3HnDtD5QCsUebbr4nypYtftd3bvudOB0PlohNXjR44cOXpq052M2Tr1TNZFM1Oh8yXk8zK+QOdvn3/ztdfePO+9+2/AXppzeYzZtMh2AIA60fmz7XxUROejP9r1bKfzkUUD+8iJSZ/P2ek+YvPUUdn2eNqeVk+YWzm95U4WZa82yRULmbzzL5uOH2S4a/IiVi7r9cdkvn2ZQI09KGD70ordPUcPAMBM0fl0fqvR+egPOh9dsHXapLfxzKmJWllfJijyKoF7QWGEXDfrIpF3y8M7n/raQWWVjtvPXXEfv55vXinIua6+IlDgsABlX3dgUR8AZojOp/Nbjc5Hf9D5aD9dYH/m1KoN5olWxYt2vm1yt9nq8cQV7EV6RMDqiQI35eha/vFVrf3CVyuh6vvzJfVXzm+buI4twOewIZ6++j9o9FjkW4UDPvf4AABA7eh8Or/V6Hz0B52PttNQHrZ30cPvE+yNjDsWIJniW1unzZXcSftag3uJYXPrlLkbRZo9vl99rSH8e/tn9zl8tsr9y/UVAL/V089NkXqbAIApofPp/Faj89EfdD5aTSM/3sbFj8CPyXnL/ZDZl7ld2XjwioApf3st80XiZQJzN8YdWZB4hcIq9HJDWTPrfE3yaNFe6Bv+33zTNP2IlRV7aX7D6+sB3s0CAKaFzqfzW43OR3/Q+Wiv0chXo/08jl6j4FU2t/QNAnbrnPfkD6R3e8adHLwHITf1z33t6V8+8ivPr+670/km6/xBUBtvnt+OnxxPW929Od+8GmCyvNDB+XY/ORvpKwUFbggAUAc6n85vNTof/UHno520hzPLvNyqvj3a3yh6BdmBv4Cfztzy6GZjYn7sqv40On/AVPpkTT245qDzQ3BHELhXENyZAICpofPp/Faj89EfdD7aR98nnzzMPmV5XOu9QLrbFwWeOXFC/nfcJ97b2yz+akBa5+s9HbMjfZ0izHv1Z9T5Lsn1i0Hn2zNjkrc8bjFfDyowt2m/yj/CHwBQAzqfzm81Oh/9QeejXbKOsM89DD6/zHUb94n3Yxq+WufrnSxa72kvZ0wiYOcXOHp/EN9a4ibv/c4ffG22sLec+CKn8+MXj9kUAFAPOp/ObzU6H/1B56M9BkHuTiZkdL6lwZxV5/ZS29729vMjPtH57jWHFNEn8A0737/zehDByMH5/n0o9waEVKE7P7Ou7WL9oPOjN9LHrFyu0vn25oeX2o1Z0geA6aLz6fxWo/PRH3Q+uiGv83PZKw56O+Uw+6TRzh/ZpTk3pfN9BTs/gNl0/lC87e0mMVHeR19k3by9LLodi3fpA8DU0fl0fqvR+egPOh/dMGHn+0v94zI7cOePHpvQgs7PN77zJ1nPd5Xv3Xb29gCAetD5dH6r0fnoDzof3TBR5+ux9MkOT5T8iNHOT9Xpzs8Ma7tYn9756s3z5yfqfHt+6jH6+XcIABAanU/ntxqdj/6g89ENE3S+vvU948/vZ3z6Xbj1/MRmQ83t/O3zK+cv5WZ1vPM1zSNVjtt3lR8/Yj+G0geAaaLz6fxWo/PRH3Q+uqF059tiz7iCvbGUCHfXCtH5WT1fqPPt38//9IlzU/v7+SsrGtNevacJfNy+7jG343WTtNV+AEBodD6d32p0PvqDzkc3lOt8fVt+asmrrI/oH+38VGM7395+2r0t0vn7516cbudHpZ0S4jF20wk6P+LffIHIV3onSX0AqB2dT+e3Gp2P/qDz0Q0lOl9X8nMiX6VuNtr5+btM73x7xfQ70LTj9u2fx4tKe3znp1w4Yedru2fuzFdycwDAROh8Or/V6Hz0B52PbijY+W4JvmBI66p+PNQTnT9eyoftjTmUoGGdb7t8uEw+2vma15FBw8fF216/jq6kN6XL9o5uabcoHe16u2n3AQAQBp1P57canY/+oPPRDUU6v+BrAUk2vCXM9eP6CnW+ezFBJTa2Vx/95L+Ypq3nAwAQQ+fT+a1G56M/6Hyg4+h8AEAodD6d32p0PvqDzgc6js4HAIRC59P5rUbnoz/ofKDj6HwAQCh0Pp3fanQ++oPOBzqOzgcAhELn0/mtRuejP+h8oOPofABAKHQ+nd9qdD76g84HOo7OBwCEQufT+a1G56M/6Hyg4+h8AEAodD6d32p0PvqDzgc6js4HAIRC59P5rUbnoz/ofKDj6HwAQCh0Pp3fanQ++oPOBzqOzgcAhELn0/mtRuejP+h8oOPofABAKHQ+nd9qdD76g84HOo7OBwCEQufT+a1G56M/6Hyg4+h8AEAodD6d32p0PvqDzgc6js4HAIRC59P5rUbnoz/ofKDj6HwAQCh0Pp3fanQ++oPOBzqOzgcAhELn0/mt9vbK2b29fXcC6C55nsuz3Z1oAzofKI3OBwCEQufT+a128dK1CxtX3Amgu+R5Ls92d6IN6HygNDofABAKnU/nt93Pzq5LArGqj66S57Y8w+V57k63BJ0PlEbnAwBCofPp/A64eOna2ytn33hrlWG6N/LcbtdKvqLzgdLofABAKHQ+nQ8AwdH5QGl0PgAgFDqfzgeA4Oh8oDQ6HwAQCp1P5wNAcHQ+UBqdDwAIhc6n8wEgODofKI3OBwCEQufT+QAQHJ0PlEbnAwBCofPpfAAIjs4HSqPzAQCh0Pl0PgAER+cDpdH5AIBQ6Hw6HwCCo/OB0uh8AEAodD6dDwDB0flAaXQ+ACAUOp/OB4Dg6HygNDofABAKnU/nA0BwdD5QGp0PAAiFzqfzASA4Oh8ojc4HAIRC59P5ABAcnQ+URucDAEKh8+l8AAiOzgdKo/MBAKHQ+XQ+AARH5wOl0fkAgFDofDofAIKj84HS6HwAQCh0Pp0PAMHR+UBpdD4AIBQ6n84HgODofKA0Oh8AEAqdT+d33nu3Dr+3fPh73z78X75y+Gu/e/jpf3T4qd+pa+TGZReyI9md7FR2DfQTnQ+URucDAEKh8+n8Dnvtp4f/17/0U3zKI3dA7gbQN3Q+UBqdDwAIhc6n8zvpxz83i+pecs9w5M7IXQL6g84HSqPzAQCh0Pl0fvd85Xt+ZgeeYx/L/NVjj/6nLx986U8efW/50blLH9+88/HBo0MZ+UJOyplf+s7HR48nrih3DOgJOh8ojc4HAIRC59P5XbK9W/+B+rbwf+Pko2/920dX3//Y7TiDbCCb/cZXh1eXuyd3Eug8Oh8ojc4HAIRC59P5nSH9XPux+sc+/uv/+NEL33+0cX1M4cdtXDdX+ew/cTcid5LUR+fR+UBpdD4AIBQ6n87vjCms5P/Nf/5ocemR219Ji0sHf+t5d1NyV4Fuo/OB0uh8AEAodD6d3w1TeE/+3/7yo1dXJ4x89eo7B3/ny+4Gea8+uo3OB0qj8wEAodD5dH4H/PjnsSCvY+x78ideyY9b/PFBdLN8Aj+C29m9d27tiow7XYBsfPX6LbmiOx0InQ+URucDAEKh8+n8Dqj3bfk28l/4/qMS78jP9vHHhy98z6W+3G0gICn25796WsedVUB0lTMra+6sEOh8oDQ6HwAQCp3fq87fWZ5f3HBfx20szM0tpF0wtLE4N5d63Zl77afJLA8+xz7+jZOPrm4FyXzj6vuPfuMrH+uNy50HQtFc1/V5d1Ya71I5KVd58eVXZdxZIdD5QGl0PgAgFDq/CZ0v+T1XRCLFTXgXM7+07a5jdzQ8GSnZ+WN2PeWXA+r9+D27mP+tfxvgiP24P/7Tj/T2+UA+hLKze08i/5sLb7nTGfS1gNGj9OWKqedPjM4HSqPzAQCh0PlN6fyTSzvuVLoCKV6IuZ2REpcz55fH7N/r/Ias7b93K5nlwefYx//jPz8Y+3fyy7py82Du99wu5FsAqrt6/dbYztfXAlLX7bXz8w8EKIXOB0qj8wEAodD5fet82dvSSVvpYw8IsLsbPdZgfnmpOZ3/veVYkwcfu5j/pT8JvJivvvht9y59+RaA6op0/pmVNdkm9X34dD4we3Q+ACAUOr8pnV9EmM4fZco/uZ5vXgNInLO9JHfRW8+3hwaMmuorAL/37WSZhx3b+d9/u5bO/96SO3RfvgWguiKdLxvIpB6cT+cDs0fnAwBCofP7t54/anzn6ysRXudHitz/mtT+Sfu/fXDuUuCD9tXZi67z+dR9BDG283UxP+vD9n7w+k/ofGDG6HwAQCh0fhs7P2MhPdfCRuxa3pK73+2jna/XbWDn/9rvJss87NjOD/1nxZ2de+4j9+VbAKrTUM/523j5G+jf5JNtQn0UH50PlEbnAwBCofOb0vlFjF3PTxxdnyEj6pMfwu9tZE465j40qPM//Y+SZR52jn381//vg4NaDts/lJvVvci3AFShn66nle7OGhFt406n0RcCZIKkPp0PlEbnAwBCofPbuJ4fI8kdK27/XfTJnld+pNtb9vee2MjevXlzy8vm9oefw2e28iWP/69drZ3/V489+uv/90d0PhpOsvzFl1+VPj+zspaV6PkH7St9i76MO10NnQ+URucDAEKh82ff+VLLsYCP97zX/3KRF+52g8WNaCk+3vka4aMvDfidb077cW5uJ1rh18/nH1zN3NtF7yZmuJ5f43H79kP4/upvf7R7r5b35+98+Eh3xHH7CEJX48+tXXGnk6IXAtzpEfpCQM4RAWXR+UBpdD4AIBQ6f/adnzzYPrPzbY8vbsRqevQofe+c0Q1EsvPN7kY2SXS+bG/uQ/xqyZuYaefX+jl82vnnLtWyoH/2XT6HDyHp5/ClhroetF9kMZ/P4QNmic4HAIRC58++87WTB+Gc0fmjH4lvzvGX60fCPn7LTizS7aVpR9qb24m2WbTB39DOr/3v6v32wfeXD9zOgvrejx/qXvi7eggi5/P2da0+ZzFf0PnA7NH5AIBQ6PwmdL78ShxFe2rnj4Z0SsCLlAX8kZcDBpFuV/JHXimwzEV+t492vvnfVCN3q0bfW06Wedixnf/Fb3/kdhaU3KzuRb4FoLqczpfzxzY8nQ/MHp0PAAiFzm9G5w+X0NM6X1o9+Xn4KT1vpZ5vezw6071AYLdMrOQnsn30tkc7X7+esfduJcs87NjO/1v/7OHV9wO/Rf/KzY/mfs/tRb4FoLqszi9y0L6g84HZo/MBAKHQ+U3p/IGM4/YTzPlp6/BZ/R/dplvDn+RT8Rva+eL/+pexMg87g4/i++M/Dbyk/83XH+gu5M4DQeR0vpw5NuDpfGD26HwAQCh0/mw7/7nPP/VYkgvxubknn3zSnTXwyU9+Us6XRL99+/axpOPHj5ubMwE+/zsvvOTOHbhw4YK5cGHuM5/5zNPPHjv2m5+zezVfvvTSS+aKltyIu8KA7EgvWl7+k6f1Csaz8rXcPb2fwt67oac+/5xeazpe+2kyzgOO6/yD/+VfPLz6frBP47ty86Pf+MrHugu580Ao+qH659aulMp12ViuUmTNvxQ6HyiNzgcAhELnz7bztZvj3AWHh6+88oo7a2B52b2TO9n5proff/xx19wLG5Lu7pIB7fzDjcXf/vZP3FnHjulLDE888YS74tyc3IiGeuRXX1qxO/Q635C7pxcJd1aMu2BaavzUfXvo/l/5hw+/uvjw4xAH78uNyE3pjfNJ+whLP29Px51VQHSVrL/JNxk6HyiNzgcAhELnz7bzEcSPf56M84AzOHT/r/yD/YUzD93+Klg4447Yl5G7DYSli/Olil2339m9504HQucDpdH5AIBQ6Hw6vxu+8r1YnIedwZL+539v/0crlVL/RysP/s6X3c3KHQY6jM4HSqPzAQCh0Pl0fmfU9YF8g3fpS+r/D//0/sKZB25/JckV/9bz7jb5+D10Hp0PlEbnAwBCofPp/M7Y3q3tjfrR0fv/8MFf+529ry7sb1w7cHst4MI18/b+z/4Td2tyJ+WuAt1G5wOl0fkAgFDofDq/S6Sfa17VN6n/331h738+ce+b/2b/ys0xtX/l5kd//PqD6NP1ZeTuEfnoAzofKI3OBwCEQufT+d1T13v1h6n/8L/7B/c/+Vsf/u3nP3z+m/cWztz/83cf3tg+OHh0KCNfnH33o8UzD7747Y+OHk/cAu/JR3/Q+UBpdD4AIBQ6n87vpB//vM4/tld+5M7w6froFTofKI3OBwCEQufT+R322k9rO4y/8MgdkLsB9A2dD5RG5wMAQqHz6fzOe+/W4feWD3/v22ZR/dd+9/DT/8hP8YAjNy67kB3J7mSnsmugn+h8oDQ6HwAQCp1P5wNAcHQ+UBqdDwAIhc6n8wEgODofKI3OBwCEQufT+QAQHJ0PlPaff8n9TsYwDMMwoeaXTrj/ynSPV/g6dD4A1IfOB0r7xB/6v5wxDMMwTMX5ay+5/8p0j1f4OnQ+ANSHzgdKi46xZBiGYZhQ0+H3gnmFr0PnA0B96HwAAADUyCt8HTofAOpD5wMAAKBGXuHr0PkAUB86HwAAADXyCl+HzgeA+tD5AAAAqJFX+Dp0PgDUh84HAABAjbzC16HzAaA+dD4AAABq5BW+Dp0PAPWh8wEAAFAjr/B16HwAqA+dDwAAgBp5ha9D5wNAfeh8AAAA1MgrfB06HwDqQ+cDAACgRl7h69D5AFAfOh8AAAA18gpfh84HgPrQ+QAAAKiRV/g6dD4A1IfOBwAAQI28wteh8/vj4OBg7/7+7u697Tu7t+QnfuuDWkd2ITuS3clOZdfuTgA9Q+cDAACgRl7h69D5fXB//8EHOx96HT7lkTsgd8PdIaA36HwAAADUyCt8HTq/2/YfPNy+s+sl9wxH7ozcJXfngB6g8wEAAFAjr/B16PwOu/vhntfYu7v37u3df/DgYXQgvXwhJz/8cE8uvfn+9uaNWzdu3paRr9+XJ8bWnfgtlJutD7KuLndM9w50Hp0PAACAGnmFr0Pnd9KjR4/iB+rf+UD6/v5HH415k/zDjz7avfvh+1vb1ze3NPi19qPbmXy2PrhlvhjelNw9uZNux0B30fkAAACokVf4OnR+90g/R8fq37q9c/fu3sOHH7nLCnjw4OGdO7vXN9+X2g+Z+jJbiZNyJ0l9dB6dDwAAgBp5ha9D53dPtJJ/e3tnb2/fnVvS7u6HmvqbN26FTP3kyF11+wM6is4HAABAjbzC16HzOyZ6T/729u79+xNGvrp7997m5ta16+/Xmvq8Vx/dRucDAACgRl7h69D5XbL/4GHUzxOv5Mft7N69+t6NulOfT+BHcDu7986tXZFxpwuQja9evyVXdKcDofMBAABQI6/wdej8Loneln/3brBF8tu370jqh3+vfmzkbrudASFIsT//1dM67qwCoqucWVlzZ4VA5wMAAKBGXuHr9LzzNxbm5hY23ImhnaWTc/PLO+5US9zff6DZfOeD3bEfrV/cg4cPr2++/941l/ohO998LJ+7Nbnzbn9AZZrruj7vzkrjXSon5SovvvyqjDsrBDofAAAANfIKX6dhnb+xODfWYqzLi2wfF7+uUbbzzfbFTP9lgujj9+7du+/OCuTOnZ3LV65fu34z+NH79o/tmeED+RDKzu49ifxvLrzlTmfQ1wJGj9KXK6aePzE6HwAAADXyCl+ngZ3vt3jcuMuVrfH5pW13ckTGqwMLG1kZH+0y5XWBlLs0g8MBDg4ONJhvb+8EXMxXDx48vHJ1Mzp6P/SSvhv5Ftz+gAquXr81tvP1tYDUdXvt/PwDAUqh8wEAAFAjr/B1Wr6en0JbffyLAUL3NrKeP6j9lNtobOfv3d/XWt4N/Sli6ubNW3ZJ//363qUv34LbGVBBkc4/s7Im26S+D5/OBwAAQJt4ha/TrfV8E9jOwsbO8nzOxubSk0tLgwX8aDtb8ks21JcWR67e2M6XvNdavrcX+KB9deeD3YuX3nvv2o36Pni/plco0DdFOl82kEk9OJ/OBwAAQJt4ha/Tnc7fXpKs18P1oxq3qT+a3PblgJNLcm60pXyxuGHPNyejUDf7i1+9sZ0ffdL+g3r+Rt3e3v13L16t49D96Kb41H0EMbbzdTE/68P2fvD6T+h8AAAAtIZX+DoN7PxxUjrf5LcYFHiyxm29x96uH7804+tEqJvz7YsC7utiptz5t+QnaGv50aNH7qygDg4OLmxcvnJ1Uw/dr+Mt+vItuJ0BFWio5/xtvPwN9G/yyTahPoqPzgcAAECNvMLXaf16vntlIPGpe/F6d3Qz78zyMm559uv5dafyxx9/vH7hkn7qfuDOj43bGTAR/XQ9rXR31ohoG3c6jb4QIBMk9el8AAAA1MgrfJ2GdX45dnU95XP1U2rcMEUe5bce0j/eYCVf9bzzL12+Fv11vSjOA47bGTARyfIXX35V+vzMylpWoucftK/0Lfoy7nQ1dD4AAABq5BW+TlM63y3LlzDlkFaN7fwpHLfvdX6wJX2O20dQuhp/bu2KO50UvRDgTo/QFwJyjggoi84HAABAjbzC12n6en5KRY8o9hrBuFsppLGdH30O3349n8N3795eTev5fA4fwtLP4UsNdT1ov8hiPp/DBwAAgHbwCl+ncZ1vPjY/dih+0c7P3ya5RbHXBRJc25uAL2jKnT/8u3r3avm7ett3Pqj7/fn8XT0EkfN5+7pWn7OYL+h8AAAAtIlX+DpN63yzYB5/S3xGkyeyvmznZyl2O37Ap1xrBuv5e/f3tZZ3dj90ZwV1ffNmXZ+3Pxj5FtzOgApyOl/OH9vwdD4AAADaxCt8nWZ1fuxv4DtFCr1Yn6dtYdfno+Pwo63s3UgJdXu+fzvN6PyDgwOt5dvbOw8ffuTODWR//8HGxqVa/n7+4M35MvItuP0BFWR1fpGD9gWdDzTCzZs319fX1wBMkfyjk3967h8hgPbwCl+nSZ3vqtss6Rs2nmvrfN2LqfHtHVfkya3c3Yi9G9+eM7KjZnS++GDnQw3mDz/cc2cFsnXr9i/WL1689N57126E/RC+W4Mv5M67nQHV5HS+nDk24Ol8YPakNG7cuMGrv8CUyT86+adH6gOt4xW+TkM6/9ix5z73icce+8TnnjumnjPNbz355JOPJX3yk580Fyxs3L5922z77NPugscee/zxx+2VjCeeeMKdaz397LELFy6YnW0sfuYzn3nq84NdWS+99JL9S3um2I8fP+7Oldv+rLnqyu3bupj/v//ha+6CgVf+4FjU+e4s+73o7duzp+T+/gNt5jsf7AZc0t/ff3Dx0pULG5ftm/PNQfvBOt8s5rvbkTvv9gdUph+qf27tSqlcl43lKkXW/Euh84HS1tfXiXxgJuSfnvwDdCcAtIRX+DoN6XyT0599VitZuQsOD1955RV31sDy8rJeFOt8qXhDEl0vEpLu9jzhtnCdf3goX7hLxG9+7qnHHnviiSfmBsfqxztfyY7Muv3JpdeWl91ZA8PO316S2xlw98fubXqiT90P+Jl2N26+r4v54Q/aHwyftI+w9PP2dNxZBURXyfqbfJOh84HS1tbyPi0TQK34Bwi0jlf4Og3pfASx/+BhFM9Bjt6/vX1nbW1j490r+kn7gf9y/mBq+luA6DNdnC9V7Lr9Tui/+0DnA6WRGcAM8Q8QaB2v8HXo/I65++GexvP29u69e5VS/86dD9599/KFjcuXLl9771pdi/lyh93+gC6i84HSyAxghvgHCLSOV/g6dH73RB/Id3t7Z+JV/dvbdy5cuLR+4VL8iP3gi/l8/B46j84HSiMzgBniHyDQOl7h69D53fPo0aPojfq3bkti3N0v8yl39+/fN+/J/8W7FzYua+Rfu/5+mCP2Y39FT0bupNxVt1ego+h8oDQyA5gh/gECreMVvg6d30nSz9Gqvi3qnbt3P3ww7m3w++YT+29fvHTlF+sXN969cunytWCRv6V/Qm94C3L3iHz0AZ0PlEZmADPEP0CgdbzC16HzOyx6r77O9p3dOx/s3r17b+/+/sOHH31sPXz48N69ve3tD65v3nz3XVP4uox/+cp1fU/+5JG/9UHWtXhPPvqDzgdKIzOAGeIfINA6XuHr0Pndtv/gYXQMfxNG7gyfro9eofOB0sgMYIb4Bwi0jlf4OnR+H9zffxA/jH8mI3dA7oa7Q0Bv0PlAaWQGMEP8AwRaxyt8HTq/Pw4ODvbu7+/u3tu+s3tLfuIjKR52ZBeyI9md7FR27e4E0DN0PlAamQHMEP8AgdbxCl+HzgeA+tD5QGlkBjBD/AMEWscrfB06HwDqQ+cDpZEZwAzxDxBoHa/wdeh8AKgPnY9G2Dp99MiRIydW3cm41eNyydFTm+5kmq1Tz8g2xRxP20dJZAYwQ/wDBFrHK3wdOh8A6kPnowE2T5nKH2GyP+Oi5GsCpvOPnt5ypyz7woH36oB9OYDOB1qOf4BA63iFr0PnA0B96HzM3OoJKXJb6RLnySV9c5Ercwn+Z04lUn5oeAsR2/ne8QEpLwdMhswAZoh/gEDreIWvQ+cDQH3ofMyWLXkX8Hr4fbQIby8atPrW6gmzsJ9MfT3afxKZLxkUQmYA+e5b7kS2gpt5+AcItI5X+Dp0PgDUh87H7Ogx+YnkTi65b66uJg68X109vZXS5/Z2vLV7865+P+bNCwfeZpMhM4AcFy9efO211+R/3ekMq6urstmdO6X/O8I/QKB1vMLXofMBoD50PmZq03V72mH29sxhq2cfdZ/S+WlvxU97OWDg3Nee/uUjv/L86r47nY/MAPKNTf3NzU3Z4Oc//7k7XQb/AIHW8Qpfh84HgPrQ+Zil9APvpe11qT9bItft2/OTH7mX8o59Oh+YpjNnzkjJpx6WL2fKRbKBO10S/wCB1vEKX4fOB4D60PlohErr+fpG/mIyOr8cMgMYS2JeSl6Mpv7ER+wr/gECreMVvg6dDwD1ofPRCJU6f+rIDKCI1KP3xx7SPxb/AIHW8Qpfh84HgPrQ+ZiptOPzo5in84G285bu5Qs5KWfqycnwDxBoHa/wdeh8AKgPnY9GSK7n20/Ryzfsf1HiwH2O2wemKX70vpDIl6/dZZPiHyDQOl7h69D5AFAfOh+NkHrcfmFpn7o3yr4aQOcDU7a5uSlt//Of/7zi2/Ij/AMEWscrfB06HwDqQ+djhrLW7Y+e2sxb0h9J+pTOT/n7+XQ+MCP6nnxR5W35Ef4BAq3jFb4OnQ8A9aHz0QR64H28wbPejZ96/mjn25cJ6HygMezB+1WP2Ff8AwRaxyt8HTofAOpD52P2zNr7wKDDQ3T+8WTT53W+/fv5nz5xjr+fDzQe/wCB1vEKX4fOB4D60PmYNRvpJ46b9+efMu/S12K3oZ5hfOe7j/E/emrTnWHkdP7+uRfpfKAl+AcItI5X+Dp0fpdcvHTt7ZWzb7y1yjDdG3luyzPcPdfbg87HTNkgl0SPPofPru279+eP9Lwosp7vv0aQdjuVkBnADPEPEGgdr/B16PzO+NnZ9QsbV/b2iq2WAG0jz215hsvz3J1uCTofM2SD3L6LPvZ5+1tbZhG+VOfH6Ep+7J35wzcFeG/Xr4DMAGaIf4BA63iFr0Pnd8PFS9ckgdwJoLvked6uVX06H7O0tbqq7T3yd/VKd769BZE8Vj/ijuQXGe/QL4PMAGaIf4BA63iFr0Pnd8PbK2dZyUcfyPNcnu3uRBvQ+WiE1M7PMuz8Yb3nLvIP2ZutvLBPZgAzxD9AoHW8wteh87vhjbeqL6AA7dCuZzudD5RGZgAzxD9AoHW8wteh87uBzkd/0PlAx5EZwAzxDxBoHa/wdej8bqDz0R90PtBxZAYwQ/wDBFrHK3wdOr8b6Hz0B50PdByZAcwQ/wCB1vEKX4fO7wY6H/1B5wMdR2YAM8Q/QKB1vMLXofO7gc5Hf9D5QMeRGcAM8Q8QaB2v8HXo/G6g89EfdD7QcWQGMEP8AwRaxyt8HTq/G+h89EeRZ/vO7r1za1dk3OkCZOOr12/JFd3pQOh8oDQyA5gh/gECreMVvg6d3w10Pvpj7LNdiv35r57WcWcVEF3lzErI33DofKA0MgOYIf4BAq3jFb5Oozt/e2l+bn5p253KY7acm1/ecSetjQX/nLid5fm5k0uZF7cNnY/+GPts11zX9Xl3VhrvUjkpV3nx5Vdl3Fkh0PlAaWQGMEP8AwRaxyt8nY50/sbi3NzihjuhNjYW5MzM1E92/s7SSdk2VfxmzW6KKXa3w0kvn5vfeeaLP3Vfx/z0i7/0zHfT+ke2/6Xn/SuYMzO2N376/C/90vO8yIApyu/8nd17EvnfXHjLnc6grwWMHqUvV0w9f2J0PlDa+vr6wcGBOwFgiuSfnvwDdCcAtIRX+Drd6PyNhbm5hWTmWybmM25htPNTXhFIefmgoTI6/9Z3vvhLvySpb1s9m2v7W999xmwcZ674zHfkdn5d/ted53PbuFNA3fI7/+r1W2M7X18LSF23187PPxCgFDofKO3mzZs3btwg9YEpk3908k9P/gG60wBawit8ncZ3fpZYvQ9eDjC1P04U8xOt5zdXdvmkJHrKer7/QoC9ipz5698ZbJeb+qtmUT/lyAGgBtU7/8zKmmyT+j58Oh9oBCmN9fX1NQBTJP/oiHygjbzC1+nAer5dtC9R4yMvB8guOrqeHyNtn2XQ/D99PtbqZm3f8+vPP//rWYfom6P3s4/tB0Kq3vmygUzqwfl0PgAAANrEK3yd9ne+LsW7Gk+u0sfYd9bHS74Px+27Uh95i376+/NXn5ct9aL0DYxb30lNfbOeL1jSxzRU7HxdzM/6sL0fvP4TOh8AAACt4RW+Tus733003qDGM65i1/ATxV72uP0ibwrwpX1kQE2yykffcp+yOJ/0/KoL+EHhm5MDyUX+jA/2i14jcGcBtcnvfA31nL+Nl7+B/k0+2SbUR/HR+QAAAKiRV/g6Le/8qM+jhk9dmbebJat70Pkbi+a6FdbzzZ0cu1Ht8jvffGXegT+y3j480xx4P2QO0dd340vwywbuzfnpnR99Dl/qLoDQsp7t+ul6WunurBHRNu50Gn0hQCZI6tP5AAAAqJFX+DqN6nz7TvvxoiC3288vLSdqPLlQb6Wl+GBfExS6vjQwkLjx5EVTVKzzUyXKfLAm763n53W+XCU6M/41UJOczn/x5Velz8+srGUlev5B+0rfoi/jTldD5wMAAKBGXuHrNK7zU99dP5RYeJftTVV7q+7mZOIoAJv0ifx2B+Hrvsz248SOBbB3cnEjuv145+tNTfFw/Ujl9Xwn1vnF1vPNO/N1S/XT5/kbe6hZ1rNd6Wr8ubUr7nRS9EKAOz1CXwjIOSKgLDofAAAANfIKX6fVne94na+hP9zGP2hfIl+2zt5XxjH8avTQAO+ctGMHpiDger5hP1p/IKfzzdH+/sfy8Tf2ULP8ztfP4UsNdT1ov8hiPp/DBwAAgHbwCl+ni51vl+ujsM8I7+S+4jeb0/n+SwbGyO2bW5566Y/p/NXnn/9u7np+7FWAtPV8J9n5mX9Lz7xYMPzD+0BgRTo/9fP2da0+ZzFf0PkAAABoE6/wdTrZ+fFzsqo7ua/4TdiYT8i9qZTXEdJeDqhZXucLifNKx+073tEBqZGv7HEBI7sDQpi48+X8sQ1P5wMAAKBNvMLX6WbnD9s7M7kT+zK3MG49P+uA/NTz7Q2mbFybjPKRSh8cV59I+tin6yeOw092/nftVnZl3na7YW7NRn7KX9FPsi8x8F59hDdZ5xc5aF/Q+QAAAGgTr/B1utn5kaw4T+xLb3NpcCvpnW+2T12iz9hF4r0D9csvH6BLJu58OXNswNP5AAAAaBOv8HUa0vnHrOc+/9RjA/aAeePJJ590Zw3873/4ml7r9u3b5mrPPv3YY08/a//P448/7q42N/fEE0+4Kwx85jOf0ba/cOGC2dcnPvecXPuzj8kXv//SS1rscycX/85fe/ypz8slQ7Ij3ePy8rI7a+CVPzgWfby/OyvGXmka6Hz0x9hnu36o/rm1K6VyXTaWqxRZ8y+FzgcAAECNvMLXaVzn2/YW7oLDw1deecWeoZ773CeyOt84fvy4XiReeukle96Q5L2cv7EwJ8Ev2W9ifnBd2VivtbM8//jjj+vrApFffWlFLx10vrmaevLJJ6N1e3tRgp4/BXQ++mPss10/b0/HnVVAdJWsv8k3GTofAAAANfIKX6chnY+K6Hz0R5Fnuy7Olyp23X5n9547HQidDwAAgBp5ha9D53cDnY/+aNeznc4HAABAjbzC16Hzu4HOR3/Q+QAAAIDjFb4Ond8NdD76g84HAAAAHK/wdej8bqDz0R90PgAAAOB4ha9D53cDnY/+oPMBAAAAxyt8HTq/G+h89AedDwAAADhe4evQ+d1A56M/6HwAAADA8Qpfh87vhrdXzu7t7bsTQHfJ81ye7e5EG9D5AAAAqJFX+Dp0fjdcvHTtwsYVdwLoLnmey7PdnWgDOh8AAAA18gpfh87vjJ+dXZcEYlUfXSXPbXmGy/PcnW4JOh8AAAA18gpfh87vkouXrr29cvaNt1YZpnsjz+12reQrOh8AAAA18gpfh84HgPrQ+QAAAKiRV/g6dD4A1IfOBwAAQI28wteh8wGgPnQ+AAAAauQVvg6dDwD1ofMBAABQI6/wdeh8AKgPnQ8AAIAaeYWvQ+cDQH3ofAAAANTIK3wdOh8A6kPnAwAAoEZe4evQ+QBQHzofAAAANfIKX4fOB4D60PkAAACokVf4OnQ+ANSHzgcAAECNvMLXofMBoD50PgAAAGrkFb4OnQ8A9aHzAQAAUCOv8HXofACoD50PAACAGnmFr0PnA0B96HwAAADUyCt8HTofAOpD5wMAAKBGXuHr0PkAUB86HwAAADXyCl+HzgeA+tD5AAAAqJFX+Dp0PgDUh84HAABAjbzC16Hz++Pg4GDv/v7u7r3tO7u35Cd+64NaR3YhO5LdyU5l1+5OAD1D5wMAAKBGXuHr0Pl9cH//wQc7H3odPuWROyB3w90hoDfofAAAANTIK3wdOr/b9h883L6z6yX3DEfujNwld+eAHqDzAQAAUCOv8HXo/A67++Ge19i7u/fu7d1/8OBhdCC9fCEnP/xwTy69+f725o1bN27elpGv35cnxtad+C2Um60Psq4ud0z3DnQenQ8AAIAaeYWvQ+d30qNHj+IH6t/5QPr+/kcfjXmT/MOPPtq9++H7W9vXN7c0+LX2o9uZfLY+uGW+GN6U3D25k27HQHfR+QAAAKiRV/g6dH73SD9Hx+rfur1z9+7ew4cfucsKePDg4Z07u9c335faD5n6MluJk3InSX10Hp0PAACAGnmFr0Pnd0+0kn97e2dvb9+dW9Lu7oea+ps3boVM/eTIXXX7AzqKzgcAAECNvMLXofM7JnpP/vb27v37E0a+unv33ubm1rXr79ea+rxXH91G5wNAio8eHf759uHpK4e//4vDL50zI1/ISTlTLgIAFOcVvg6d3yX7Dx5G/TzxSn7czu7dq+/dqDv1+QR+BLeze+/c2hUZd7oA2fjq9VtyRXc6EDofDbF16pkjR46cWHUny1s9kXX9rdNHK90y+mfl1uG/+HeHXzyXPnKRbAAAKMgrfB06f2BjcW5xw33dVtHb8u/eDbZIfvv2HUn98O/Vj43cbbczIAQp9ue/elrHnVVAdJUzK2vurBDofDSDrfSjp7fcycJWjx858swpc7XMzq/8CgL65OBjs2jvhX3qyGayMQBgLK/wdeh8RzJfnFzacadzmY1HXhRIPXOK7u8/0Gy+88Hu2I/WL+7Bw4fXN99/75pL/ZCdbz6Wz92a3Hm3P6AyzXVdn3dnpfEulZNylRdfflXGnRUCnY8m0BQvIar2Ap1vL5joRQT00LcuDUv+axcOf3L78Pb+4aOPzWw/MCflzGgD2RgAMJZX+DpN6vydpZOmtYuYX456XAO9iPmlbXeddPaWckp9Y2Gw32HSy1fuZneW5+cWZnlAQPTxe/fu3XdnBXLnzs7lK9evXb8Z/Oh9+8f2zPCBfAhlZ/eeRP43F95ypzPoawGjR+nLFVPPnxidjwYwJZ5S6EWOt/c6PzKsejlfNsjYBRD36vVhw//4fXfmKLko2kyuAgDI5xW+TtM6PxbwWQpulqP4SwNKk35nZ9vs2pzQzt9emjf/R843l1a+V5UcHBxoMN/e3gm4mK8ePHh45epmdPR+6CV9N/ItuP0BFVy9fmts5+trAanr9tr5+QcClELnY+ZMgqcutk/Q+SNbmyMF7I1HXwDprnw4rPef3HZnZpENoo3ligCAHF7h6/S284seYZ+67eiZtvl9U1ze37u/r7W8G/pTxNTNm7fskv779b1LX74FtzOggiKdf2ZlTbZJfR8+nY+OsUfsa6iPCND5m6eORueZr4+e2tQTnnNfe/qXj/zK86v8//kei96W/8Nr7px8spluL1cEAOTwCl+naZ1f0Aw633yRTi5OHrQ/g7V9yXut5Xt7gQ/aV3c+2L146b33rt2o74P3a3qFAn1TpPNlA5nUg/PpfHSKqfTM9g7Q+XLp0dOnTgzOHm7sC9n5r773aP7nrgCZtsyXYl9vF/tEHtlseJW7e/cAINfe3t6DBz39xC+v8HV6uZ7vmDjPk/FSgFu6j19qXwMYfoZfmdcRAok+af9BPX+jbm/v/rsXr9Zx6H50U3zqPoIY2/m6mJ/1YXs/eP0ndD46Y2vr9InooPoybLeb9flsx1cHi/nxI/ZrP3pfIj9qP6aN882L7kdZxB9fdNc6v7XvfpEHgFz9TH2v8HUa3PleLafE88aCCe5yChxLb28240P7bNHPn3QvEOj9ca8XJDp/3Gf+hXZLfoK2lh89euTOCurg4ODCxuUrVzf10P063qIv34LbGVCBhnrO38bL30D/Jp9sE+qj+Oh8NEH60fsV/u796onjp+Q2B+v4sQ/hs68O1Jf6rOS3dKL1/NdvuB9lEbKxXmtp86H7FR4Acu3tBfvr4i3iFb5O8zp/Q/53rDHr+e4T8typMsx9yLqqvqxgLtPXHAafw7d0cn5pQ74eXMucP9HOK6g7lT/++OP1C5f0U/cDd35s3M6Aiein62mlu7NGRNu402n0hQCZIKlP56MJqnf+yEK9tP3x6KrJS/PeqF8Vnd/2+XGZl4BkY73Wv71G5wMohM6PptXr+TFyaezCROcnL8ozLvKjFfvovsiO3JnDu2eW9wv+Hf5wtJPr7vxLl69Ff10vivOA43YGTESy/MWXX5U+P7OylpXo+QftK32Lvow7XQ2djyaYtPPNQr0We6zk7Yq9dzVzU8PsrxHH7bd0WM8HMB0ctx9N0zo/Ftle2HsnE2xaL25Eh8rHO99cr9Dh+sX63L4WkLZZ9Nf1zSsCU/9D+lM4bt/r/GBL+hy3j6B0Nf7cWvrnM0cvBLjTI/SFgJwjAsqi89EEdXS+/Vy+dAWPEZgQn8PX6vnjMu/P/ybvzwdQGJ/D502TOl+LvKhh8ydW7y3vnORJPfy+nIWNzA/tGyT94GWCvNcj6hN9Dt9+PZ/DJ/90alrP53P4EJZ+Dl9qqOtB+0UW8/kcPnRM9c7Xqrdfp63nO/ai6Szso13uHwxTf4LP25erAwCyeIWv07TO10IeLq3LeWPW2O0Cu7d+PlL+ttLH1Pf49Xz/ZpNvNLCX2o/om37mx/6u3r1a/q7e9p0P6n5/Pn9XD0HkfN6+rtXnLOYLOh9dkrPkPp4p+UHnm1cEnjl1Sv9sXmbn21cTal7MR3vx9/MBoCZe4es0qPNNJ7uPqY8ld7KldTU+VuPpAT/S+Xo7+YfTj+18eyBA7IP0zesSic/V1yMFxnxGYD327u9rLe/sfujOCur65s26Pm9/MPItuJ0BFeR0vpw/tuHpfPRI0fX81Sjs7enjJ9KvZl9VyLg5+/fzP33iHP9/vseufOi6XeYnt92ZWWSDaGO5IgAgh1f4Os3p/HixJ5Nb1/ltqFvzCxvuopSet1LPNzeTtvHAuM7f2dm2N+FKPuWFA/eOgKm/OV8cHBxoLd/e3nn48CN3biD7+w82Ni7V8vfzB2/Ol5Fvwe0PqCCr84sctC/ofPRIsc43os/Sl6scfUauNcz+wfXtpllH7O+fe5HOx+Hhq9eH9f7j992Zo+SiaDO5CgAgn1f4Os3pfBPJ/nvdIzaqRyLcbJYa1Rn9H9/FKHNp7nq+Y2/cSuzBvk4xv7Q85tWE+nyw86EG84cfBv5zElu3bv9i/eLFS++9d+1G2A/huzX4Qu682xlQTU7ny5ljA57OR4+UeX9+THTc/ubWlr4QcHx19fig/YFc37o0bPivXTDr9tsPDh99bOb2vjkpZ0YbyMYAgLG8wtdpSOcf+83PPfXYU5/7zWPq2c8+piUtnnzy2LPu3KcfE599dnl5Wa91+/ZtvSRy/Phxc4E9ov53XnjJnTtw4cIFe71D+cKddey5z33C3OoTTzwh+9I+lxtxFw7Ijuz1DmXXz33+KXMF66nPP/fKK6/I+Tby5562d1Tu/GOP6ZfH9FrTcX//gTbznQ92Ay7p7+8/uHjpyoWNy/bN+eag/WCdbxbz3e3InXf7AyrTD9U/t3alVK7LxnKVImv+pdD5aK6qne/o2/KpfBRy8PHwjfr5I5vJxgCAsbzC12lI55t4/qzLeW1vszZu3/ouIe3OVs8+/clPflKien55J9n55mWAxx9/3Lw2IBY2XnqpSOc7srFeJLI6X2Jedi11P3g9wtzPX//St/Vw/cWNQz1XRKmvNzg10afuB/xMuxs339fF/PAH7Q+GT9pHWPp5ezrurAKiq2T9Tb7J0PloruLH7Y/yrmbX80l9FLVy6/Bf/Ds/7KORi2QDAEBBXuHrNKTzm8/GfOJT95RdyU85Tj//PQI12X/wMIrnIEfv396+s7a2sfHuFf2k/cB/OX8wNf0tQPSZLs6XKnbdfif0332g89E5WZ+3n7r4D2T46NHhn2+bRfvf/8Xhl86ZkS/kpJwpFwEAivMKX4fO75i7H+5pPG9v7967Vyn179z54N13L1/YuHzp8rX3rtW1mC932O0P6CI6HwAAADXyCl+Hzu+e6AP5bm/vTLyqf3v7zoULl9YvXIofsR98MZ+P30Pn0fkAAACokVf4OnR+9zx69Ch6o/6t25IYd/fLfMrd/fv3zXvyf/HuhY3LGvnXrr8f5oj92F/Rk5E7KXfV7RXoKDofAAAANfIKX4fO7yTp52hV3xb1zt27Hz4Y9zb4ffOJ/bcvXrryi/WLG+9euXT5WrDI39I/oTe8Bbl7RD76gM4HAABAjbzC16HzOyx6r77O9p3dOx/s3r17b+/+/sOHH31sPXz48N69ve3tD65v3nz3XVP4uox/+cp1fU/+5JG/9UHWtXhPPvqDzgcAAECNvMLXofO7bf/Bw+gY/iaM3Bk+XR+9QucDAACgRl7h69D5fXB//0H8MP6ZjNwBuRvuDgG9QecDAACgRl7h69D5/XFwcLB3f3939972nd1b8hMfSfGwI7uQHcnuZKeya3cngJ6h8wEAAFAjr/B16HwAqA+dDwAAgBp5ha9D5wNAfeh8AAAA1MgrfB06HwDqQ+cDAACgRl7h69D5AFAfOh8AAAA18gpfh84HgPrQ+QAAAKiRV/g6dD4A1IfOBwAAQI28wteh8wGgPnQ+AAAAauQVvg6dDwD1ofMBAABQI6/wdeh8AKgPnQ8AAIAaeYWvQ+cDQH3ofAAAANTIK3wdOh8A6kPnAwAAoEZe4evQ+QBQHzofAAAANfIKX4fOB4D60PkAAACokVf4OnQ+ANSHzgcAAECNvMLXofMBoD50PgAAAGrkFb4OnQ8A9aHzAQAAUCOv8HXofACoD50PAACAGnmFr0PnA0B96HwAAADUyCt8HTq/Sy5euvb2ytk33lplmO6NPLflGe6e6+1B5wMAAKBGXuHr0Pmd8bOz6xc2ruzt7bvTQLfIc1ue4fI8d6dbgs4HAABAjbzC16Hzu+HipWuSQO4E0F3yPG/Xqj6dDwAAgBp5ha9D53fD2ytnWclHH8jzXJ7t7kQb0PkAAACokVf4OnR+N7zx1qr7Cui6dj3b6XwAAADUyCt8HTq/G+h89AedDwAAADhe4evQ+d1A56M/6HwAAADA8Qpfh87vBjof/UHnAwAAAI5X+Dp0fjfQ+egPOh8AAABwvMLXofO7gc5Hf9D5AAAAgOMVvg6d3w10PvqDzgcAAAAcr/B16PxuoPPRH0We7Tu7986tXZFxpwuQja9evyVXdKcDofMBAABQI6/wdej8bqDz0R9jn+1S7M9/9bSOO6uA6CpnVtbcWSHQ+QAAAKiRV/g6zer8jcW5ucUNdyJuZ+nk3Nzc/NK2Ox1C5s7aiM5Hf4x9tmuu6/q8OyuNd6mclKu8+PKrMu6sEOh8AAAA1MgrfJ1Gdf7O8vzcyaUdd2rInD83Py+pv5DX5VlXzxDvfPN1DreZ3Wp+OdpD2rVK3IGQ6Hz0R/6zfWf3nkT+Nxfecqcz6GsBo0fpyxVTz58YnQ8AAIAaeYWv06jO31hIK/ntJal8U9rmi7wl/Z3tJRPeua8FxPidP35tP7Xzk2FvX5Iofh+CofPRH/nP9qvXb43tfH0tIHXdXjs//0CAUuh8AAAA1MgrfJ2GdL7L4zhNZRv5UVrbzfJ73LR3LMVTjO5rftm8QBCk8y17/nRTn85Hf1Tv/DMra7JN6vvw6XwAAAC0iVf4Og1azx9drk9GvmXfqJ9/bLyp7PHNPjxMwHDXMQcUpIhvVaTz3SUF7kQwdD76o3rnywYyqQfn0/kAAABoE6/wdZrT+f676zWqT/pr73MnFxfzU99ecexyuq7qe50f8e+M0rtUpPOLvB4RFJ2P/qjY+bqYn/Vhez94/Sd0PgAAAFrDK3yd5nT+xoJJaP1fW9B5b8U3C+8ZFT1Ykx/z4fy6WW2dr7c/vRV9Oh/9kf9s11DP+dt4+Rvo3+STbUJ9FB+dDwAAgBp5ha/TmM53pe06X9jj6iOxuh6t8jhzmb5ekLukbxNdmc38WwzU+WH/EGAeOh/9kfVs10/X00p3Z42ItnGn0+gLATJBUp/OBwAAQI28wtdpSucPQjvZ+S69B2fKRvYcv8pjzEW2rqMv0tiMnzfvz1/WjwAYfA6fuZZvGPb2UjofmK2czn/x5Velz8+srGUlev5B+0rfoi/jTldD5wMAAKBGXuHrNKTz9d3ycbbAy3a+fVe8W8aPf+0xFy1uDG5F/u/ConeLHLcPNFb+s11X48+tXXGnk6IXAtzpEfpCQM4RAWXR+QAAAKiRV/g6TVnPH0iu5w8V6nxzfmwJ3TsZkfNNnMdvxb/Fyp1vLxr3WYAB0fnoj/xnu34OX2qo60H7RRbz+Rw+AAAAtINX+DrN7nyX3sXW81PS2iyqj8T2zvKijf/4rfi3WLHz9fCE0btYHzof/VGk81M/b1/X6nMW8wWdDwAAgDbxCl+ngZ2v9J3zkbGdb684WtZpmzrxi/Rr87+p3Gb28vGdr0ciTHExX9D56I+JO1/OH9vwdD4AAADaxCt8nYZ0fpT3YoL1fLt+nvGhd2bj1IvitzJyi6nMVmM6X7+R2DZTQuejPybr/CIH7Qs6HwAAAG3iFb5OA9fzszt/IFnlYw+StxuMXh6o8z3pb9evHZ2P/pi48+XMsQFP5wMAAKBNvMLXaUjnHxt49rOPPfX55+SLqPOXl5ejM9W3v/TrUZX/w7/9+GOPPfb0s+4icfv2bXvJ4YULF9xZ9mYfe+yp33nhJb1IvPTSF58eXvFZ+fozn/mMpvqv/uqvytZxn/n7/8xd7fDwlVde0etE5B66y2LfSMRdUDM6H/0x9tmuH6p/bu1KqVyXjeUqRdb8S6HzAQAAUCOv8HUa3vlLy/Of/OQnJdE/95vmQqlx8eSTT+qi+s7y/OOP/51Y4xupnS+e+/xTTzzxRLRon+x8Q7bXi+QW3FkDx48f14sEnQ/M1thnu37eno47q4DoKll/k28ydD4AAABq5BW+TkM6HxXR+eiPIs92XZwvVey6/c7uPXc6EDofAAAANfIKX4fO7wY6H/3Rrmc7nQ8AAIAaeYWvQ+d3A52P/qDzAQAAAMcrfB06vxvofPQHnQ8AAAA4XuHr0PndQOejP+h8AAAAwPEKX4fO7wY6H/1B5wPd9/d+ePgff/nwP/y9SUauKFfvm5s3b66vr69NRK4oV3c31Bs8YgA6wyt8HTq/G+h89AedD3ScVPp/ctyv91IjV+9V6ktz3rhx4+DgwJ0uSa4oV+9VuPKIAegSr/B16PxuoPPRH3Q+0HETr+THR26kP9bX1ydOViVXlxtxJ3qARwxAl3iFr0Pnd8PbK2f39vbdCaC75Hkuz3Z3og3ofDTP6okjR46cKPN62erxI0eeObXlTtXOK/aJpzB5RBKPx9bpo0eO+w/QBA+CuUq5R3pCa2tr7qsKJrgR80BlfIf2ez96atOdLM08S83VzS5qeO7N6hHLYh+uuPJPm81T5ofhlL96zQ84gFp5ha9D53fDxUvXLmxccSeA7pLnuTzb3Yk2oPMxa/Lru5+sNvQzfpU3vZGXuPa6I8K2rJfrE09R7nsaRunW6glJpqOn44+QzaDEOZGtU8+kPGgD7tZrzf3ZVGvOcyH9In0WpV428vDYx9tk5+aqeXhDl+esOl9fGUmVfAi2ttJeIsm5evIhil+9EQ84gFp5ha9D53fGz86uSwKxqo+ukue2PMPlee5OtwSdjxnTdULvl/rMtVa3JOg3QKzzzSkJAreF2T7tdqrxcn3iKcF947HvJfZdGqmt5LaXpnIXj8RTJP+1gKpmUK32O7YvfKye8l7+sA/m4KFI71XD3kLmI2YujX4c5tHLeJFlQjPt/OynyTiVrj7TBxxArbzC16Hzu+TipWtvr5x9461VhuneyHO7XSv5is7HzNnC9H69H0ZanG7pta5Hbsec627Odb5ecWjSEHG8XJ94ypHv5fgp7xtRR0+bFc6x2WMbLPboTdG0q1WfGPZli5EXkuxlg1c0Ml9REnbD6Ip6O2OEW2Sm86f8gAOolVf4OnQ+ANSHzkcD2PXVZKbaX/mTv8TbhEiv2TLr+bFLJ+XlepH5b795+L++6p85odGHy3xPZQLe3oKn4mOSb6rVqt9d7Mlji9F9f8mnikh7mUkls9NX9jEvic731fyAA6iVV/g6dD4A1IfORyPYEkv8Eu+fo/GWcWD5aOfHyI3YRNAwTil/ce5rT//ykV95frXYO8u8XB87EvlvXD28ec9P/WJMiCbixz4UsXPs91vlkHv/Bu05yRdZKpp2tW5ueXc++QxJtv3m6mpqPc40O+l8X80POIBaeYWvQ+cDQH3ofDTDaMbbX/oHq9b2RE4CjHS+23RQ9cP8SK+FGjtfI19d3T38uz8cXlSIPjLDh8KdM3wsNldPPHPkxHH7CCXZq9imzX8VwH/wNYNDNtUsqtV8F9GDlniGJJ5a2exmscc5+dqHd6mcbvUrIwP2X0pxsQfAqnT1mT7gAGrlFb4OnQ8A9aHz0RRSCEePr6b/4q4p6yWFy1HfiVUTBG5jU7Daq+ZMSTvTIZXzIAr1aP6L3/fP0cmJfJnCBt+pprgfPKNioW4Wq+0VcrpdO9/dZPjIF03q/PSnjUrEv/c420dpuIE+qO7FEXebuT+Ucmba+Rnfx/gnXrWrz/QBB1Arr/B16HwAqA+dj24wETD4pT/29bDzXYGckN7LX9wuIN7qMv/krcOXz6Wkfjzyr+z4kS9ThoTNoL01eIb8JjdNO5JA9ts3W9ovhsxmrvPN1/a6gSNfNKfz9du3D87qavoTIe2FAH2NwDzy3k/B3FLqA15Rnzq/EQ84gFp5ha9D5wNAfeh8zJD7zX0i3i/55qYGZ3k3O+iEWM1WFG91ifyDj82ZXup/clzky0zIfn/6XUT1PmQvTaxLZxgm2eCRUdUfn1FN6Xx9atgXejT4/UcvLvY4R6LXC6Jn2dFnzO0Ef9D61PkDM33AAdTKK3wdOh8A6kPno91MBphsMxEw+NU/9nVsPV/YZcAAgRBv9X965tBmvvGN8y71i0S+zIRiOTSSVXZpVLtoDLulHtpgO//Eafu/1R+dNM3o/BMnzLpx7FuMXuBIfcTSsnP4jDKXHj1qF6KLvKpSFp3vTOsBB1Arr/B16HwAqA+dj2aRHvN/0Zff77OPtC/f+dnrt4V5ue6l/ue+VyjyZcoYVqtNKfddaFadMv+bLnowzZbxmo03lXa+HrRf6DWC0prR+enfmn0M4w/VQPwh8tiLzE9h1T10wdH5CfU/4ABq5RW+Dp0PAPWh89EgrriSPWbjPPNN9fHOtySAzdeuBOKdb2vWyH7VoCAv12XiqX/znvsiP/JlyrDfoL3n9gFx399IVmWu59trRa9xJDcbdL7upUur04WlvVffPuSjSWkec3no7EMlj2f8xxHQdB8x+61OSL73ilcfmOkDDqBWXuHr0PkAUB86H42hHZ7WqK7/U/o8WrM1ETD43V+/TrSHaRHJg2dOrfphPAkv13XiqS+u3x0T+TIlDBMokegjzZPV+fb6gwcw2fzxzo/vKKSZdL79NgsbfXalPRTmNnVLc6k+honHNpSZPGIzNtMHHECtvMLXofMBoD50PhrC/u6eFvkqI/Xttcxv/+YLUwjRor32gjlp2yC5ZO21hPv7+Z8+ca7a389/c3C4/kePDr9+1r90dIobrtvrNzh4HIp2vr1W7LD/5KL98MExdIORh6iSmXX+8KFI/ty9U1FMxtknV+xxsKejzcypwWsl9pKwx0HMvPPTH5OJRf8Sc8z0AQdQK6/wdeh8AKgPnY8msHU6Li1t0ybbw8aD+WiuZ47GS3XI1UUiGOR2/ELYP/diiM6XkdQvGPkyhQ3r3YvwZMqK9M631zKNpFf3+y3Z+UIf6jE/jzLa2/kJ8W3MpcNwTXn1pJqZdr7+ezx66nTGXx6cwOaW+2MHI0/OoZk+4ABq5RW+Dp0PAPWh8zFzg6jIX+uztD+Hv/2bX/2l1lwfpHSpdv7q6onj2XVRnpfr3hSMfJmibIfbpNHvNBmo4ztfH2G51tbq8aMpQTvS+SJ6aSCIVnW+ezqlPFBxZqvE49OBR8zQ7z7/e5+cPhW9J1sjHnAAtfIKX4fOB4D60PmYrRKRb7lO0CSI5VmxVAjEy/WJpyBdupQ00pc5Yo1kv+vEt2wfH+9BsBmf98ikdX5Yrer8QuzPosbHbBaPmP4jqr+cdT85C/tp6n7AAdTKK3wdOh8A6kPnY5YmWpGTStBf95OtJjRoC6kUDP/xl/1in2DkRgoaFo58gzZH7TnKfSOxc0YeT5tVo9+wvnzglKzcstbX1w8ODtyJicjV5UbciWLMYxK682OPc70HjU/7EbP/dqZ4GLx9UhZ4zKf2gAOolVf4OnQ+ANSHzkdrbQY+Gr+4v/fDw//kuN/tpUauLjfSHzdv3rxx48bE4SpXlKvLjbjTY9iGnFBTjgOf7iMGAPXyCl+HzgeA+tD5wCSk0ide1Zcr9irylTTn+vr62kTkij1MVh4xAJ3hFb4OnQ8A9aHzAQAAUCOv8HXo/C65eOna2ytn33hrlWG6N/Lclme4e663B50PAACAGnmFr0Pnd8bPzq5f2Liyt1fsrxMDbSPPbXmGy/PcnW4JOh8AAAA18gpfh87vhouXrkkCuRNAd8nzvF2r+nQ+AAAAauQVvg6d3w1vr5xlJR99IM9zeba7E21A5wMAAKBGXuHr0Pnd8MZb9f5pXqA52vVsp/MBAABQI6/wdej8bqDz0R90PgAAAOB4ha9D53cDnY/+oPMBAAAAxyt8HTq/G+h89AedDwAAADhe4evQ+d1A56M/6HwAAADA8Qpfh87vBjof/UHnAwAAAI5X+Dp0fjfQ+egPOh8AAABwvMLXofO7gc5HfxR5tu/s3ju3dkXGnS5ANr56/ZZc0Z0OhM4HAABAjbzC16Hzu4HOR3+MfbZLsT//1dM67qwCoqucWVlzZ4VA5wMAAKBGXuHrdLHzd5ZOzs0tbLhT2XaW5+dOLu24U5PaWJybm1/adqdmhc5Hf4x9tmuu6/q8OyuNd6mclKu8+PKrMu6sEOh8AAAA1MgrfJ2Gdb6J5nHGRnWYzi/8KoDd3dzi+P3Vic5Hf+Q/23d270nkf3PhLXc6g74WMHqUvlwx9fyJ0fkAAACokVf4Og3s/Lxi3l6an0bn68sNixvbO8lLi7wMMTS/XPVYgeLofPRH/rP96vVbYztfXwtIXbfXzs8/EKAUOh8AAAA18gpfh/X8ZIvr4nzWaw3jXoaYHTof/VG988+srMk2qe/Dp/MBAADQJl7h67CeP+h89xJDbsYn7l7KywSzex2Azkd/VO982UAm9eB8Oh8AAABt4hW+TqvX801plxQ/ln4Q6sXfYG87fqHAfbSmWfx0PvqjYufrYn7Wh+394PWf0PkAAABoDa/wdRrW+UHYFwvS33ifkHbcfj7W84HZy3+2a6jn/G28/A30b/LJNqE+io/OBwAAQI28wtdpRue7d8WXk3Vkvjm2X4zv7QCdn4LOB+qV9WzXT9fTSndnjYi2cafT6AsBMkFSn84HAABAjbzC12nSer6p/fhx9RsLhd5m77PL+TnBndHnOaJ3CrCeD8xeTue/+PKr0udnVtayEj3/oH2lb9GXcaerofMBAABQI6/wdZrW+b6FDVP7I7Jj2n0IX5HXCJKh7q7oTqWbXcePQ+ejP/Kf7boaf27tijudFL0Q4E6P0BcCco4IKIvOBwAAQI28wtdpw3q+OX9Y1/kfuW8P2jcbmyQf88n8/oL82Ku4Xae9HpE0/dcC6Hz0R/6zXT+HLzXU9aD9Iov5fA4fAAAA2sErfJ3mr+ebC2JBnnK0/JC9BXep/Tp3fX70pswrC5k3rp0fJbx5VcC/ff1ogJxbqA2dj/4o0vmpn7eva/U5i/mCzgcAAECbeIWv04b1fGEuMoUdLdensUf4xy7M3VikvWSQVu8DI9vrCxN6CIB+nbj/00Tnoz8m7nw5f2zD0/kAAABoE6/wdVrS+YOlcpET4aNH3dtsz0r99EMDdEcpe/HvnrL7tTLu2HTQ+eiPyTq/yEH7gs4HAABAm3iFr9PEzo+SfsCEui1297Uvvq7u0w5PXWZPdr7sILoF3VlyV+a8+C7cAr5xcmkjqv1ZHLQv6Hz0x8SdL2eODXg6HwAAAG3iFb5OQzr/2LNPPxb5xOeeO3ZMztT1/FdeeeXZz5qzn3722DG73Sf/jz/Qlr59+7a7or2KOH78uL3EeOmll+x5x4795ueeMhs99a2VC3rRhQsX5OznPv+UXPFZ+d/HHnviib8ZNbzciFyqO33ss2avsiO5M/PLO8vLfxLdUXt/jsndc1eT70K4fRlPff45d0H96Hz0x9hnu36o/rm1K6VyXTaWqxRZ8y+FzgcAAECNvMLXaUrnj5AzbecvffGZJ6OMV8t/8rxZOV/YWHnpVyWntbdVeudbUvWf+cxn9Oj6YedbcguysV5LaOcrrf2XV27rRcvLy+6CAb/zk9wF9aPz0R9jn+36eXs67qwCoqtk/U2+ydD5AAAAqJFX+DoN6fxZsAfez/RN9QHR+eiPIs92XZwvVey6/c7uPXc6EDofAAAANfIKX6fHnd8pdD76o13PdjofAAAANfIKX4fO7wY6H/1B5wMAAACOV/g6dH430PnoDzofAAAAcLzC16Hzu4HOR3/Q+QAAAIDjFb4Ond8NdD76g84HAAAAHK/wdej8bqDz0R90PgAAAOB4ha9D53cDnY/+oPMBAAAAxyt8HTq/G95eObu3t+9OAN0lz3N5trsTbUDnAwAAoEZe4evQ+d1w8dK1CxtX3Amgu+R5Ls92d6IN6HwAAADUyCt8HTq/M352dl0SiFV9dJU8t+UZLs9zd7ol6HwAAADUyCt8HTq/Sy5euvb2ytk33lplmO6NPLfbtZKv6HwAAADUyCt8HTofAOpD5wMAAKBGXuHr0PkAUB86HwAAADXyCl+HzgeA+tD5AAAAqJFX+Dp0PgDUh84HAABAjbzC16HzAaA+dD4AAABq5BW+Dp0PAPWh8wEAAFAjr/B16HwAqA+dDwAAgBp5ha9D5wNAfeh8AAAA1MgrfB06HwDqQ+cDAACgRl7h69D5AFAfOh8AAAA18gpfh84HgPq4zn/99f8f0QW2dSUHUywAAAAASUVORK5CYII=;" vertex="1" parent="1">
          <mxGeometry x="160" y="70" width="1357" height="683" as="geometry" />
        </mxCell>
        <mxCell id="fY73obB4F6OhqXvNk9wh-3" value="" style="rounded=0;whiteSpace=wrap;html=1;fillColor=none;strokeWidth=3;dashed=1;strokeColor=#1890FF;" vertex="1" parent="1">
          <mxGeometry x="160" y="70" width="920" height="683" as="geometry" />
        </mxCell>
        <mxCell id="fY73obB4F6OhqXvNk9wh-4" value="" style="rounded=0;whiteSpace=wrap;html=1;fillColor=none;strokeWidth=3;dashed=1;strokeColor=#808080;" vertex="1" parent="1">
          <mxGeometry x="1080" y="70" width="440" height="683" as="geometry" />
        </mxCell>
        <mxCell id="fY73obB4F6OhqXvNk9wh-5" value="" style="rounded=0;whiteSpace=wrap;html=1;fillColor=#f5f5f5;fontColor=#333333;strokeColor=none;opacity=20;" vertex="1" parent="1">
          <mxGeometry x="1080" y="71.5" width="440" height="680" as="geometry" />
        </mxCell>
        <mxCell id="fY73obB4F6OhqXvNk9wh-6" value="" style="rounded=0;whiteSpace=wrap;html=1;fillColor=#dae8fc;strokeColor=none;opacity=20;" vertex="1" parent="1">
          <mxGeometry x="160" y="70" width="920" height="680" as="geometry" />
        </mxCell>
      </root>
    </mxGraphModel>
  </diagram>
</mxfile>
